<svg width="110" height="23" viewBox="0 0 110 23" fill="none" xmlns="http://www.w3.org/2000/svg">
<path d="M4.3162 3.54545C2.86531 2.35364 3.70805 0 5.58568 0H104C107.314 0 110 2.68629 110 6V17C110 20.3137 107.314 23 104 23H5.58568C3.70804 23 2.86531 20.6464 4.3162 19.4545L12.1186 13.0455C13.0926 12.2454 13.0926 10.7546 12.1186 9.95455L4.3162 3.54545Z" fill="url(#paint0_linear_2900_9282)"/>
<path d="M19.795 8H22.755C23.5817 8 24.215 8.18667 24.655 8.56C25.0983 8.93 25.32 9.45333 25.32 10.13C25.32 10.7067 25.13 11.18 24.75 11.55C24.37 11.9167 23.845 12.1317 23.175 12.195L25.33 15H23.64L21.6 12.215H21.19V15H19.795V8ZM22.73 9.285H21.19V11H22.73C23.5 11 23.885 10.71 23.885 10.13C23.885 9.56667 23.5 9.285 22.73 9.285ZM31.8219 13.72V15H26.5919V8H31.7819V9.28H27.9869V10.83H31.6069V12.11H27.9869V13.72H31.8219ZM36.5432 7.87C37.1899 7.87 37.7799 8.01 38.3132 8.29C38.8499 8.56667 39.2599 8.95 39.5432 9.44L38.3432 10.175C38.1432 9.86833 37.8882 9.63167 37.5782 9.465C37.2682 9.295 36.9199 9.21 36.5332 9.21C35.8932 9.21 35.3649 9.42333 34.9482 9.85C34.5315 10.2767 34.3232 10.8267 34.3232 11.5C34.3265 12.19 34.5382 12.745 34.9582 13.165C35.3782 13.5817 35.9032 13.79 36.5332 13.79C36.9165 13.79 37.2632 13.7083 37.5732 13.545C37.8832 13.3783 38.1449 13.14 38.3582 12.83L39.4982 13.65C39.1815 14.1133 38.7665 14.4767 38.2532 14.74C37.7432 15 37.1732 15.13 36.5432 15.13C36.0132 15.13 35.5199 15.04 35.0632 14.86C34.6065 14.6767 34.2165 14.4267 33.8932 14.11C33.5732 13.79 33.3215 13.405 33.1382 12.955C32.9582 12.505 32.8682 12.02 32.8682 11.5C32.8682 10.98 32.9582 10.495 33.1382 10.045C33.3215 9.595 33.5732 9.21167 33.8932 8.895C34.2165 8.575 34.6065 8.325 35.0632 8.145C35.5199 7.96167 36.0132 7.87 36.5432 7.87ZM43.9455 7.87C44.6522 7.87 45.2855 8.02667 45.8455 8.34C46.4089 8.65333 46.8455 9.08667 47.1555 9.64C47.4689 10.19 47.6255 10.81 47.6255 11.5C47.6255 12.19 47.4689 12.8117 47.1555 13.365C46.8455 13.915 46.4089 14.3467 45.8455 14.66C45.2855 14.9733 44.6522 15.13 43.9455 15.13C43.4155 15.13 42.9222 15.0383 42.4655 14.855C42.0089 14.6717 41.6189 14.42 41.2955 14.1C40.9755 13.78 40.7239 13.3967 40.5405 12.95C40.3605 12.5 40.2705 12.0167 40.2705 11.5C40.2705 10.9833 40.3605 10.5017 40.5405 10.055C40.7239 9.605 40.9755 9.22 41.2955 8.9C41.6189 8.58 42.0089 8.32833 42.4655 8.145C42.9222 7.96167 43.4155 7.87 43.9455 7.87ZM43.9455 9.21C43.2989 9.21 42.7672 9.42333 42.3505 9.85C41.9339 10.2733 41.7255 10.8233 41.7255 11.5C41.7255 12.1767 41.9339 12.7283 42.3505 13.155C42.7672 13.5783 43.2989 13.79 43.9455 13.79C44.5955 13.79 45.1272 13.5783 45.5405 13.155C45.9572 12.7283 46.1655 12.1767 46.1655 11.5C46.1655 10.8233 45.9572 10.2733 45.5405 9.85C45.1272 9.42333 44.5955 9.21 43.9455 9.21ZM56.602 8V15H55.207V9.715L53.477 14.325H52.002L50.272 9.755V15H48.877V8H50.922L52.742 12.725L54.557 8H56.602ZM65.9184 8V15H64.5234V9.715L62.7934 14.325H61.3184L59.5884 9.755V15H58.1934V8H60.2384L62.0584 12.725L63.8734 8H65.9184ZM72.7398 13.72V15H67.5098V8H72.6998V9.28H68.9048V10.83H72.5248V12.11H68.9048V13.72H72.7398ZM80.43 8V15H79.12L75.57 10.325L75.565 15H74.17V8H75.475L79.03 12.675V8H80.43ZM82.0216 8H84.9066C86.0032 8 86.8832 8.32 87.5466 8.96C88.2099 9.6 88.5416 10.4467 88.5416 11.5C88.5416 12.5533 88.2099 13.4 87.5466 14.04C86.8832 14.68 86.0032 15 84.9066 15H82.0216V8ZM84.8916 9.305H83.4166V13.695H84.8916C85.6049 13.695 86.1482 13.495 86.5216 13.095C86.8949 12.6917 87.0816 12.16 87.0816 11.5C87.0816 10.8333 86.8949 10.3017 86.5216 9.905C86.1482 9.505 85.6049 9.305 84.8916 9.305ZM95.025 13.72V15H89.795V8H94.985V9.28H91.19V10.83H94.81V12.11H91.19V13.72H95.025ZM96.4552 8H99.3402C100.437 8 101.317 8.32 101.98 8.96C102.643 9.6 102.975 10.4467 102.975 11.5C102.975 12.5533 102.643 13.4 101.98 14.04C101.317 14.68 100.437 15 99.3402 15H96.4552V8ZM99.3252 9.305H97.8502V13.695H99.3252C100.038 13.695 100.582 13.495 100.955 13.095C101.328 12.6917 101.515 12.16 101.515 11.5C101.515 10.8333 101.328 10.3017 100.955 9.905C100.582 9.505 100.038 9.305 99.3252 9.305Z" fill="white"/>
<defs>
<linearGradient id="paint0_linear_2900_9282" x1="19.0562" y1="-1.65133" x2="20.7076" y2="26.6511" gradientUnits="userSpaceOnUse">
<stop stop-color="#592BD9"/>
<stop offset="1" stop-color="#00F0FF"/>
</linearGradient>
</defs>
</svg>
