<svg width="305" height="21" viewBox="0 0 305 21" fill="none" xmlns="http://www.w3.org/2000/svg">
<path d="M0.908818 16.7559C0.633961 16.6032 0.481262 16.4352 0.450722 16.252C0.435453 16.0687 0.542342 15.748 0.771389 15.29C1.00044 14.8319 1.35928 14.1218 1.84791 13.1598C2.21439 12.4727 2.45871 11.9382 2.58087 11.5565C2.71829 11.1595 2.79464 10.877 2.80991 10.709C2.82518 10.541 2.83282 10.4341 2.83282 10.3883C2.80228 10.2509 2.81755 10.144 2.87863 10.0677C2.93971 9.97605 3.03896 9.8997 3.17639 9.83862C3.25274 9.76227 3.42834 9.62484 3.7032 9.42633C3.97806 9.22783 4.19183 8.99114 4.34453 8.71629C4.48196 8.39562 4.63466 8.06732 4.80263 7.73138C4.98587 7.39544 5.22255 6.97552 5.51268 6.47162C5.8028 5.95244 6.19218 5.28057 6.68082 4.456C6.98621 3.92155 7.34506 3.3184 7.75734 2.64652C8.1849 1.97465 8.60482 1.36386 9.0171 0.814142C9.18507 0.600364 9.36068 0.432395 9.54391 0.310236C9.72715 0.188078 9.88748 0.126999 10.0249 0.126999C10.3609 0.126999 10.6968 0.218618 11.0327 0.401856C11.3687 0.569824 11.6664 0.783602 11.926 1.04319C12.1856 1.30278 12.3612 1.54709 12.4528 1.77614C12.5292 1.8983 12.5597 2.15789 12.5444 2.5549C12.5292 2.95192 12.4986 3.43292 12.4528 3.9979C12.407 4.56289 12.3536 5.16605 12.2925 5.80738C12.2467 6.43344 12.178 7.17403 12.0863 8.02914C11.9947 8.88425 11.9031 9.77754 11.8115 10.709C11.7351 11.6405 11.6741 12.5414 11.6282 13.4118C11.5824 14.2669 11.5824 15.0151 11.6282 15.6564C11.6435 15.7939 11.6435 15.9237 11.6282 16.0458C11.613 16.168 11.6053 16.2672 11.6053 16.3436C11.5137 16.4352 11.3152 16.4734 11.0098 16.4581C10.7044 16.4581 10.4067 16.4123 10.1165 16.3207C9.82641 16.229 9.66607 16.1145 9.63553 15.9771C9.58972 15.9313 9.55918 15.8931 9.54391 15.8626C9.52864 15.832 9.52864 15.687 9.54391 15.4274C9.55918 15.1525 9.58209 14.6563 9.61263 13.9386L9.72715 10.4341L9.42939 10.457C9.29196 10.457 9.04001 10.4723 8.67353 10.5029C8.32233 10.5334 7.93294 10.5792 7.50539 10.6403C7.0931 10.6861 6.71136 10.7395 6.36015 10.8006C6.00895 10.8464 5.76463 10.8922 5.6272 10.938C5.48977 10.938 5.3218 11.0297 5.12329 11.2129C4.94006 11.3961 4.76445 11.6328 4.59648 11.923C4.53541 12.1367 4.42088 12.3658 4.25291 12.6101C4.10021 12.8391 4.02387 12.9918 4.02387 13.0682C3.91698 13.1445 3.82536 13.2362 3.74901 13.343C3.68793 13.4499 3.65739 13.5034 3.65739 13.5034C3.65739 13.595 3.58868 13.824 3.45125 14.1905C3.31382 14.5417 3.14585 14.9387 2.94734 15.3816C2.74883 15.8091 2.54269 16.1832 2.32891 16.5039L1.71048 17.3743L0.908818 16.7559ZM6.38306 8.87662C6.38306 8.87662 6.46704 8.86135 6.63501 8.83081C6.80298 8.80027 7.00148 8.76973 7.23053 8.73919C7.47485 8.69338 7.68863 8.67048 7.87187 8.67048C8.22307 8.57886 8.5132 8.51014 8.74225 8.46433C8.98656 8.41852 9.18507 8.39562 9.33777 8.39562C9.49047 8.38035 9.61263 8.39562 9.70425 8.44143C9.76533 8.51778 9.81877 8.56359 9.86458 8.57886C9.92566 8.59413 9.9562 8.60176 9.9562 8.60176C9.97147 8.57122 10.002 8.41089 10.0478 8.12076C10.0936 7.83063 10.1471 7.47179 10.2082 7.04424C10.2692 6.61668 10.3303 6.17386 10.3914 5.71576C10.4525 5.2424 10.5059 4.80721 10.5517 4.41019C10.5975 3.9979 10.6281 3.67724 10.6433 3.44819C10.6586 3.15806 10.651 2.89848 10.6204 2.66943C10.5899 2.42511 10.5746 2.30295 10.5746 2.30295C10.483 2.30295 10.3074 2.47092 10.0478 2.80686C9.8035 3.12752 9.51337 3.56271 9.17744 4.11243C8.85677 4.64687 8.5361 5.22713 8.21544 5.85319C8.06274 6.14332 7.91768 6.37236 7.78025 6.54033C7.65809 6.7083 7.55883 6.79229 7.48248 6.79229C7.45195 6.82283 7.36796 6.94498 7.23053 7.15876C7.10837 7.35727 6.97095 7.58632 6.81825 7.8459C6.68082 8.09022 6.55866 8.31927 6.45177 8.53305C6.36015 8.73156 6.33725 8.84608 6.38306 8.87662ZM15.1039 15.3129C14.8748 15.3129 14.6458 15.1449 14.4167 14.809C14.1877 14.4577 14.0044 14.0302 13.867 13.5263C13.7448 13.0224 13.699 12.5261 13.7296 12.0375C13.7296 11.5488 13.7525 11.1595 13.7983 10.8693C13.8594 10.5639 13.9205 10.2662 13.9815 9.97605C14.0273 9.88443 14.0502 9.80808 14.0502 9.747C14.0655 9.68592 14.0808 9.58667 14.0961 9.44924C14.1266 9.31181 14.18 9.08276 14.2564 8.76209C14.3175 8.50251 14.3785 8.28873 14.4396 8.12076C14.516 7.95279 14.5771 7.83827 14.6229 7.77719C14.8061 7.53287 15.0122 7.38781 15.2413 7.342C15.4703 7.28092 15.6765 7.30382 15.8597 7.41071C16.0582 7.5176 16.1728 7.67794 16.2033 7.89171C16.2949 7.96806 16.3407 8.14367 16.3407 8.41852C16.356 8.67811 16.3407 8.95297 16.2949 9.24309C16.2491 9.51795 16.1804 9.71646 16.0888 9.83862C16.0582 9.91497 16.0201 10.1135 15.9742 10.4341C15.9437 10.7548 15.9055 11.0907 15.8597 11.442C15.8292 11.7932 15.791 12.0757 15.7452 12.2894C15.6994 12.5643 15.7147 12.7399 15.791 12.8162C15.8826 12.8773 16.0353 12.8086 16.2491 12.6101C16.4782 12.3963 16.7759 12.0222 17.1424 11.4878C17.4478 11.0297 17.6692 10.6708 17.8066 10.4112C17.9593 10.1517 18.0738 9.91497 18.1502 9.70119C18.2418 9.48741 18.3411 9.23546 18.448 8.94533C18.5243 8.70102 18.593 8.50251 18.6541 8.34981C18.7305 8.19711 18.7992 8.09022 18.8602 8.02914C19.0282 7.78482 19.2496 7.68557 19.5245 7.73138C19.8146 7.76192 20.0513 7.83827 20.2345 7.96043C20.4178 8.14367 20.5247 8.39562 20.5552 8.71629C20.601 9.02168 20.5323 9.35762 20.3491 9.72409C20.2269 9.96841 20.1047 10.2585 19.9826 10.5945C19.8757 10.9304 19.7841 11.2663 19.7077 11.6023C19.6466 11.9382 19.6161 12.2283 19.6161 12.4727C19.6161 12.7781 19.6543 12.9613 19.7306 13.0224C19.8222 13.0682 19.9291 13.0911 20.0513 13.0911C20.2345 13.0911 20.4101 13.03 20.5781 12.9079C20.7461 12.7704 20.9904 12.5337 21.3111 12.1978C21.4485 12.0604 21.6165 11.8542 21.815 11.5794C22.0135 11.3045 22.2043 11.0144 22.3876 10.709C22.5861 10.4036 22.7464 10.1364 22.8686 9.90733C23.006 9.66302 23.0747 9.51032 23.0747 9.44924C23.0747 9.35762 23.1434 9.22782 23.2809 9.05986C23.3725 8.9377 23.4412 8.84608 23.487 8.785C23.5481 8.70865 23.655 8.6323 23.8077 8.55595C23.9298 8.49487 24.0673 8.48724 24.22 8.53305C24.3727 8.56359 24.5025 8.63994 24.6093 8.76209C24.6857 8.82317 24.7391 8.97587 24.7697 9.22019C24.8155 9.44924 24.8384 9.65538 24.8384 9.83862C24.7926 10.0066 24.7239 10.2433 24.6322 10.5487C24.5406 10.8388 24.4414 11.1213 24.3345 11.3961C24.2429 11.6557 24.1589 11.8313 24.0825 11.923C24.0215 11.984 23.9146 12.0986 23.7619 12.2665C23.6092 12.4192 23.4717 12.5872 23.3496 12.7704C22.9678 13.2285 22.693 13.5263 22.525 13.6637C22.357 13.8011 22.212 13.9309 22.0898 14.0531C21.7692 14.3738 21.4027 14.6333 20.9904 14.8319C20.5781 15.0151 20.1887 15.122 19.8222 15.1525C19.4558 15.1678 19.1656 15.0991 18.9519 14.9464C18.4785 14.7021 18.2418 14.2898 18.2418 13.7095C18.2418 13.5874 18.2189 13.4805 18.1731 13.3889C18.1426 13.282 18.1273 13.2285 18.1273 13.2285C18.0662 13.2285 17.9822 13.2438 17.8753 13.2743C17.7837 13.3049 17.6845 13.4118 17.5776 13.595C17.4402 13.8546 17.2035 14.1218 16.8675 14.3967C16.5469 14.6563 16.2186 14.8777 15.8826 15.0609C15.5467 15.2289 15.2871 15.3129 15.1039 15.3129ZM29.7538 15.5419C29.2957 15.8015 28.8071 15.9542 28.2879 16C27.784 16.0305 27.3106 15.9618 26.8678 15.7939C26.425 15.6106 26.0661 15.3434 25.7913 14.9922C25.6386 14.7937 25.4935 14.4807 25.3561 14.0531C25.2186 13.6103 25.1957 13.0147 25.2874 12.2665C25.379 11.5641 25.5928 10.8541 25.9287 10.1364C26.2799 9.4187 26.7075 8.785 27.2114 8.23529C27.7153 7.68557 28.265 7.31146 28.8605 7.11295C29.0743 7.0366 29.2881 6.98316 29.5018 6.95262C29.7309 6.90681 30.0286 6.89917 30.3951 6.92971C30.7463 6.97552 31.0594 7.06714 31.3342 7.20457C31.6091 7.32673 31.8076 7.46416 31.9297 7.61686C32.1741 7.86117 32.3344 8.09786 32.4107 8.3269C32.4871 8.55595 32.5176 8.77736 32.5024 8.99114C32.426 9.47978 32.2046 10.0066 31.8381 10.5716C31.4869 11.1366 30.9906 11.5565 30.3493 11.8313C30.0897 11.9382 29.7843 12.0069 29.4331 12.0375C29.0819 12.068 28.6009 12.0222 27.9901 11.9C27.6236 11.8237 27.3793 11.8619 27.2572 12.0146C27.1503 12.1673 27.1045 12.465 27.1197 12.9079C27.1503 13.1827 27.2114 13.427 27.303 13.6408C27.4099 13.8393 27.6007 13.9767 27.8756 14.0531C28.2268 14.1142 28.4788 14.1218 28.6315 14.076C28.7842 14.0149 28.975 13.9309 29.2041 13.824C29.3262 13.7477 29.4408 13.6637 29.5476 13.5721C29.6698 13.4805 29.7843 13.3889 29.8912 13.2972C30.0134 13.2056 30.1126 13.1369 30.189 13.0911C30.2653 13.03 30.3417 12.9918 30.418 12.9766C30.4944 12.9613 30.5707 12.9537 30.6471 12.9537C30.815 12.9689 30.9754 13.0606 31.1281 13.2285C31.2808 13.3965 31.38 13.5568 31.4258 13.7095C31.4258 13.8317 31.3495 14.0073 31.1968 14.2363C31.0441 14.4501 30.8379 14.6792 30.5784 14.9235C30.334 15.1525 30.0592 15.3587 29.7538 15.5419ZM29.456 10.4341C29.5629 10.3883 29.7156 10.2814 29.9141 10.1135C30.1279 9.94551 30.3188 9.7699 30.4867 9.58667C30.6547 9.38816 30.7387 9.23546 30.7387 9.12857C30.7387 8.9606 30.6242 8.81554 30.3951 8.69338C30.1813 8.57122 29.8988 8.54832 29.5476 8.62467C29.4255 8.65521 29.2804 8.73919 29.1125 8.87662C28.9445 9.01405 28.7765 9.17438 28.6085 9.35762C28.4406 9.52559 28.2955 9.69356 28.1734 9.86152C28.0512 10.0142 27.9672 10.1364 27.9214 10.228C27.9825 10.3043 28.1046 10.3654 28.2879 10.4112C28.4711 10.457 28.6696 10.48 28.8834 10.48C29.1125 10.48 29.3033 10.4647 29.456 10.4341ZM35.136 16.1374C34.6474 16.1374 34.197 16.0305 33.7847 15.8168C33.3877 15.5877 33.067 15.3129 32.8227 14.9922C32.5783 14.6563 32.4562 14.3356 32.4562 14.0302C32.4562 13.8928 32.4791 13.7935 32.5249 13.7324C32.586 13.6713 32.67 13.6408 32.7769 13.6408C32.8532 13.6561 32.9448 13.6943 33.0517 13.7553C33.1586 13.8164 33.2655 13.8851 33.3724 13.9615C33.6167 14.1294 33.8839 14.2363 34.174 14.2821C34.4642 14.328 34.7238 14.3127 34.9528 14.2363C35.1819 14.1447 35.3117 14.0073 35.3422 13.824C35.3422 13.763 35.3117 13.6332 35.2506 13.4347C35.1895 13.2362 35.1131 13.0453 35.0215 12.862C34.6398 12.2971 34.4031 11.7626 34.3115 11.2587C34.2199 10.7395 34.1588 10.2204 34.1282 9.70119C34.1282 9.48741 34.2275 9.25073 34.426 8.99114C34.6245 8.71629 34.8688 8.44906 35.159 8.18948C35.4796 7.91462 35.8308 7.65503 36.2126 7.41071C36.6096 7.1664 36.999 6.96025 37.3807 6.79229C37.7625 6.62432 38.0831 6.52506 38.3427 6.49452C38.6176 6.49452 38.9077 6.50979 39.2131 6.54033C39.5338 6.5556 39.7475 6.60905 39.8544 6.70067C40.0682 6.86863 40.2667 7.14349 40.45 7.52524C40.6332 7.90698 40.7248 8.22765 40.7248 8.48724C40.7248 8.6094 40.6561 8.76209 40.5187 8.94533C40.3965 9.1133 40.282 9.30417 40.1751 9.51795C40.114 9.62484 40.0606 9.73936 40.0148 9.86152C39.969 9.98368 39.9155 10.1058 39.8544 10.228C39.7628 10.4418 39.5948 10.5334 39.3505 10.5029C39.1215 10.457 38.9077 10.3349 38.7092 10.1364C38.5107 9.9226 38.4114 9.67829 38.4114 9.40343C38.4114 9.17438 38.4801 8.97587 38.6176 8.8079C38.755 8.63994 38.8237 8.52541 38.8237 8.46433C38.8237 8.43379 38.8084 8.41089 38.7779 8.39562C38.7474 8.38035 38.6939 8.37271 38.6176 8.37271C38.5107 8.37271 38.3351 8.41852 38.0908 8.51014C37.8617 8.58649 37.6174 8.70102 37.3578 8.85371C37.0982 9.00641 36.8615 9.18965 36.6478 9.40343C36.4951 9.5714 36.3653 9.75463 36.2584 9.95314C36.1668 10.1364 36.121 10.3349 36.121 10.5487C36.121 10.7624 36.1591 11.0144 36.2355 11.3045C36.3271 11.5794 36.4263 11.8084 36.5332 11.9917C36.5638 12.0222 36.6096 12.1062 36.6707 12.2436C36.747 12.3658 36.831 12.5185 36.9226 12.7017C37.4876 13.8622 37.5792 14.725 37.1975 15.29C36.831 15.8549 36.1439 16.1374 35.136 16.1374ZM43.1667 15.8168C42.846 15.8778 42.6017 15.8626 42.4337 15.771C42.281 15.6641 42.1207 15.5343 41.9527 15.3816C41.7084 15.2594 41.487 15.0914 41.2885 14.8777C41.09 14.6486 40.9373 14.4119 40.8304 14.1676C40.7235 13.9233 40.6777 13.7324 40.693 13.595C40.7388 13.0606 40.8609 12.4803 41.0594 11.8542C41.2732 11.2282 41.5404 10.6174 41.8611 10.0219C42.197 9.42633 42.5711 8.89952 42.9834 8.44143C43.411 7.96806 43.8691 7.62449 44.3577 7.41071C44.6631 7.28855 44.9914 7.24275 45.3426 7.27329C45.6938 7.30383 45.9305 7.44889 46.0527 7.70848C46.2817 8.1513 46.2283 8.43379 45.8923 8.55595C45.8465 8.55595 45.7931 8.57886 45.732 8.62467C45.6709 8.65521 45.6404 8.70102 45.6404 8.76209C45.7015 8.79263 45.8694 8.80027 46.1443 8.785C46.4192 8.75446 46.694 8.70865 46.9689 8.64757C47.259 8.57122 47.4499 8.49487 47.5415 8.41852C47.6331 8.37271 47.7018 8.34981 47.7476 8.34981C47.7934 8.34981 47.908 8.36508 48.0912 8.39562C48.3508 8.47197 48.4806 8.56359 48.4806 8.67048C48.4806 8.73156 48.5035 8.83081 48.5493 8.96824C48.5951 9.0904 48.6485 9.15148 48.7096 9.15148C48.8165 9.16675 48.8394 9.27363 48.7783 9.47214C48.7325 9.67065 48.5569 9.87679 48.2515 10.0906C47.9614 10.2738 47.7782 10.396 47.7018 10.457C47.6407 10.5029 47.6331 10.6097 47.6789 10.7777C47.8011 11.0678 47.7934 11.419 47.656 11.8313C47.5186 12.2436 47.2895 12.6712 46.9689 13.114C46.6482 13.5568 46.2665 13.9767 45.8236 14.3738C45.3961 14.7555 44.9456 15.0838 44.4722 15.3587C44.0142 15.6183 43.579 15.771 43.1667 15.8168ZM43.2354 13.8928C43.2965 13.8928 43.4034 13.8622 43.5561 13.8011C43.7088 13.7248 43.8309 13.6637 43.9225 13.6179C43.9836 13.5568 44.06 13.4881 44.1516 13.4118C44.2585 13.3201 44.3425 13.2667 44.4035 13.2514C44.4646 13.2514 44.5028 13.2285 44.5181 13.1827C44.5333 13.1216 44.5868 13.0071 44.6784 12.8391C44.77 12.6559 44.9532 12.3887 45.2281 12.0375C45.5335 11.7015 45.732 11.4343 45.8236 11.2358C45.9152 11.022 45.9229 10.793 45.8465 10.5487C45.8313 10.4876 45.7855 10.4494 45.7091 10.4341C45.648 10.4189 45.564 10.3807 45.4572 10.3196C45.3045 10.3196 45.1976 10.3578 45.1365 10.4341C45.0907 10.4952 44.9838 10.457 44.8158 10.3196L44.4493 9.86152L44.06 10.2509C43.8156 10.4952 43.5942 10.8006 43.3957 11.1671C43.2125 11.5336 43.0674 11.9077 42.9605 12.2894C42.8536 12.6712 42.7849 13.0071 42.7544 13.2972C42.7391 13.5263 42.7773 13.679 42.8689 13.7553C42.9605 13.8317 43.0827 13.8775 43.2354 13.8928ZM50.4803 15.2441C50.1901 15.122 49.9535 14.9387 49.7702 14.6944C49.6023 14.4348 49.5183 14.1218 49.5183 13.7553C49.5183 13.6026 49.5488 13.343 49.6099 12.9766C49.671 12.6101 49.755 12.1978 49.8618 11.7397C49.9687 11.2816 50.0756 10.8541 50.1825 10.457C50.3352 10.1822 50.4345 9.90733 50.4803 9.63248C50.5414 9.35762 50.5719 9.18965 50.5719 9.12857C50.6024 8.94533 50.6559 8.70102 50.7322 8.39562C50.8086 8.09022 50.8849 7.81536 50.9613 7.57105C51.0529 7.31146 51.114 7.1664 51.1445 7.13586C51.2209 7.05951 51.3507 7.0137 51.5339 6.99843C51.7171 6.98316 51.9004 7.00606 52.0836 7.06714C52.2668 7.11295 52.389 7.21221 52.4501 7.3649C52.6181 7.54814 52.7097 7.823 52.7249 8.18948C52.7555 8.55595 52.6868 8.98351 52.5188 9.47214C52.3814 9.77754 52.2439 10.1364 52.1065 10.5487C51.9691 10.961 51.8469 11.3427 51.74 11.6939C51.6484 12.0298 51.595 12.2589 51.5797 12.381L50.7551 12.3581C51.0147 12.1138 51.259 11.8619 51.4881 11.6023C51.7171 11.3274 51.8851 11.1137 51.992 10.961C52.2516 10.6097 52.473 10.3196 52.6562 10.0906C52.8547 9.84625 53.1067 9.55613 53.4121 9.22019C53.7175 8.86898 54.0458 8.62467 54.397 8.48724C54.7482 8.33454 55.0078 8.25819 55.1757 8.25819C55.5117 8.31927 55.8094 8.49487 56.069 8.785C56.3439 9.05986 56.5119 9.47214 56.5729 10.0219C56.5729 10.2356 56.55 10.4876 56.5042 10.7777C56.4737 11.0678 56.4584 11.2129 56.4584 11.2129C56.4584 11.2129 56.5806 11.0602 56.8249 10.7548C57.0845 10.4494 57.4281 10.1058 57.8556 9.72409C58.1457 9.51032 58.4282 9.38816 58.7031 9.35762C58.9779 9.31181 59.2223 9.40343 59.436 9.63248C59.8331 9.84625 60.1232 10.2204 60.3064 10.7548C60.4897 11.2893 60.5507 11.8924 60.4897 12.5643C60.4438 12.9613 60.4438 13.282 60.4897 13.5263C60.5507 13.7553 60.6118 13.9615 60.6729 14.1447C60.8714 14.4196 60.9019 14.6639 60.7645 14.8777C60.6271 15.0762 60.5049 15.1754 60.398 15.1754C60.2453 15.1754 60.0163 15.1449 59.7109 15.0838C59.4055 15.0227 59.123 14.9158 58.8634 14.7631C58.6191 14.6104 58.4969 14.4043 58.4969 14.1447V12.7246C58.4969 12.3887 58.4817 12.1444 58.4511 11.9917C58.4359 11.8237 58.3977 11.7168 58.3366 11.671C58.1686 11.5794 57.9625 11.6481 57.7182 11.8771C57.4739 12.1062 57.2066 12.4345 56.9165 12.862C56.6417 13.2743 56.3439 13.7401 56.0232 14.2592C55.7331 14.7326 55.4964 15.0227 55.3132 15.1296C55.1299 15.2212 54.9543 15.2136 54.7864 15.1067C54.4504 14.9998 54.2367 14.8548 54.145 14.6715C54.0687 14.473 54.0611 14.2516 54.1221 14.0073C54.1985 13.7477 54.2901 13.4118 54.397 12.9995C54.5191 12.5872 54.6337 12.1902 54.7406 11.8084C54.8474 11.4114 54.9162 11.1213 54.9467 10.938C54.8856 10.8159 54.7787 10.7777 54.626 10.8235C54.4886 10.8541 54.3435 10.9228 54.1908 11.0297C54.0076 11.1518 53.8091 11.2816 53.5953 11.419C53.3968 11.5565 53.1601 11.8466 52.8853 12.2894C52.702 12.5796 52.4959 12.9002 52.2668 13.2514C52.0378 13.5874 51.824 13.8928 51.6255 14.1676C51.4423 14.4425 51.2896 14.6333 51.1674 14.7402C51.0605 15.0151 50.9613 15.1907 50.8697 15.267C50.778 15.3281 50.6482 15.3205 50.4803 15.2441ZM63.8643 15.7939C63.2688 15.5495 62.8565 15.1525 62.6275 14.6028C62.3984 14.0531 62.3374 13.3201 62.4443 12.404C62.4748 11.9306 62.4595 11.6176 62.3984 11.4649C62.3374 11.2969 62.2228 11.1366 62.0549 10.9839C62.0091 10.9228 61.9022 10.8235 61.7342 10.6861C61.5662 10.5334 61.4899 10.4189 61.5052 10.3425C61.4899 10.2356 61.5128 10.1058 61.5739 9.95314C61.635 9.78517 61.6884 9.69356 61.7342 9.67829C61.8411 9.63248 61.948 9.57903 62.0549 9.51795C62.177 9.45687 62.2687 9.4416 62.3297 9.47214C62.3908 9.47214 62.4824 9.51032 62.6046 9.58667C62.742 9.66302 62.8107 9.73173 62.8107 9.79281C62.8718 9.8997 62.9634 9.85389 63.0856 9.65538C63.223 9.45687 63.3681 9.20492 63.5208 8.89952C63.6735 8.65521 63.8643 8.42616 64.0934 8.21238C64.3224 7.9986 64.5515 7.80773 64.7805 7.63976C65.0249 7.45652 65.231 7.31909 65.399 7.22748C65.4753 7.19694 65.6204 7.15113 65.8342 7.09005C66.0632 7.02897 66.2999 6.98316 66.5442 6.95262C66.7885 6.90681 66.9718 6.89154 67.0939 6.90681C67.3688 6.92208 67.6589 7.0366 67.9643 7.25038C68.2697 7.46416 68.5064 7.66267 68.6743 7.8459C68.8729 7.98333 69.0027 8.19711 69.0637 8.48724C69.1401 8.7621 69.1706 9.05222 69.1553 9.35762C69.1401 9.66302 69.079 9.9226 68.9721 10.1364C68.9263 10.2891 68.766 10.5029 68.4911 10.7777C68.2163 11.0526 67.9109 11.3198 67.5749 11.5794C67.2543 11.8237 66.9794 11.9917 66.7503 12.0833C66.5518 12.1291 66.3152 12.1673 66.0403 12.1978C65.7654 12.2131 65.5059 12.2131 65.2615 12.1978C65.0325 12.1673 64.8722 12.1291 64.7805 12.0833C64.6737 12.0222 64.582 12.0451 64.5057 12.152C64.4446 12.2436 64.3912 12.5032 64.3453 12.9308C64.3301 13.0987 64.3301 13.2438 64.3453 13.366C64.3759 13.4881 64.4064 13.5797 64.437 13.6408C64.5439 13.824 64.6507 13.9615 64.7576 14.0531C64.8645 14.1294 65.063 14.1523 65.3532 14.1218C65.6433 14.0913 65.9334 13.9157 66.2235 13.595C66.5289 13.2591 66.8038 12.9918 67.0481 12.7933C67.1092 12.6864 67.239 12.6177 67.4375 12.5872C67.6513 12.5414 67.9032 12.5567 68.1933 12.633C68.3613 12.7399 68.4377 12.9079 68.4224 13.1369C68.4224 13.366 68.3002 13.7019 68.0559 14.1447C68.0101 14.2516 67.8803 14.4119 67.6665 14.6257C67.468 14.8242 67.2466 15.0304 67.0023 15.2441C66.7733 15.4427 66.5824 15.5877 66.4297 15.6793C65.9716 15.9237 65.5211 16.0382 65.0783 16.0229C64.6355 16.0076 64.2308 15.9313 63.8643 15.7939ZM65.5593 10.6403C65.7883 10.5792 65.9792 10.5181 66.1319 10.457C66.2999 10.396 66.4602 10.2967 66.6129 10.1593C66.7656 10.0219 66.9412 9.81571 67.1397 9.54086C67.2008 9.37289 67.2313 9.22782 67.2313 9.10567C67.2466 8.98351 67.239 8.90716 67.2084 8.87662C67.0863 8.75446 66.9489 8.71629 66.7962 8.76209C66.6587 8.79263 66.506 8.86898 66.3381 8.99114C66.2312 9.03695 66.0785 9.13621 65.88 9.2889C65.6967 9.42633 65.5135 9.58667 65.3303 9.7699C65.1623 9.93787 65.0249 10.0982 64.918 10.2509C64.8263 10.3883 64.8111 10.4723 64.8722 10.5029C64.8416 10.5639 64.9256 10.6021 65.1241 10.6174C65.3379 10.6327 65.483 10.6403 65.5593 10.6403ZM81.8027 16.4352C81.6042 16.481 81.4057 16.4276 81.2072 16.2749C81.0239 16.1374 80.8942 15.9847 80.8178 15.8168C80.7262 15.5724 80.6651 15.3434 80.6346 15.1296C80.6193 14.9006 80.604 14.641 80.5888 14.3509L80.5659 13.5721L79.6268 14.4196C79.1076 14.9082 78.6189 15.2594 78.1609 15.4732C77.718 15.6717 77.3134 15.771 76.9469 15.771C76.7789 15.7404 76.5728 15.6335 76.3285 15.4503C76.0994 15.2518 75.8856 15.038 75.6871 14.809C75.5039 14.5646 75.3741 14.3661 75.2978 14.2134C75.2061 13.9997 75.1756 13.7019 75.2061 13.3201C75.2519 12.9384 75.3436 12.5185 75.481 12.0604C75.6337 11.6023 75.8169 11.1518 76.0307 10.709C76.2598 10.2662 76.5193 9.88443 76.8095 9.56376C77.3134 8.80027 77.9394 8.3269 78.6877 8.14367C79.4359 7.94516 80.1001 8.00624 80.6804 8.3269C80.9552 8.46433 81.1537 8.51778 81.2759 8.48724C81.3981 8.4567 81.4744 8.35744 81.5049 8.18948C81.566 7.94516 81.6347 7.71611 81.7111 7.50233C81.7874 7.28855 81.8943 6.96789 82.0318 6.54033C82.4135 5.37982 82.7418 4.47127 83.0167 3.81467C83.3068 3.15806 83.5664 2.58544 83.7954 2.09681C83.9634 1.7456 84.1314 1.50128 84.2993 1.36386C84.4673 1.22643 84.6124 1.16535 84.7345 1.18062C84.9025 1.18062 85.1086 1.2417 85.3529 1.36386C85.6125 1.48601 85.7805 1.65398 85.8569 1.86776C85.9179 2.00519 85.9408 2.15025 85.9256 2.30295C85.9256 2.45565 85.8798 2.61598 85.7881 2.78395C85.5896 3.15043 85.3529 3.63906 85.0781 4.24986C84.8185 4.84538 84.5513 5.50198 84.2764 6.21967C84.0168 6.93735 83.7725 7.6474 83.5435 8.34981C83.3144 9.05222 83.1236 9.67065 82.9709 10.2051C82.8792 10.541 82.8029 10.9686 82.7418 11.4878C82.696 12.0069 82.6578 12.5414 82.6273 13.0911C82.612 13.6255 82.612 14.1065 82.6273 14.5341C82.6426 14.9464 82.6655 15.2136 82.696 15.3358C82.7876 15.6412 82.7876 15.8702 82.696 16.0229C82.6044 16.1756 82.4746 16.2749 82.3066 16.3207C82.1386 16.3817 81.9707 16.4199 81.8027 16.4352ZM78.0234 13.6637C78.2372 13.5874 78.4281 13.4957 78.596 13.3889C78.764 13.282 78.9625 13.1445 79.1916 12.9766C79.6497 12.6254 79.978 12.32 80.1765 12.0604C80.3902 11.8008 80.5582 11.4801 80.6804 11.0984C80.7567 10.8693 80.7567 10.6708 80.6804 10.5029C80.6193 10.3349 80.5048 10.1746 80.3368 10.0219C80.1688 9.88443 79.9551 9.83098 79.6955 9.86152C79.4359 9.87679 79.1381 10.0371 78.8022 10.3425C78.4357 10.6785 78.1227 11.0678 77.8631 11.5107C77.6035 11.9535 77.3897 12.5872 77.2218 13.4118C77.1912 13.5645 77.2447 13.6713 77.3821 13.7324C77.5195 13.7935 77.7333 13.7706 78.0234 13.6637ZM89.163 15.5419C88.7049 15.8015 88.2163 15.9542 87.6971 16C87.1932 16.0305 86.7198 15.9618 86.277 15.7939C85.8342 15.6106 85.4753 15.3434 85.2005 14.9922C85.0478 14.7937 84.9027 14.4807 84.7653 14.0531C84.6279 13.6103 84.605 13.0147 84.6966 12.2665C84.7882 11.5641 85.002 10.8541 85.3379 10.1364C85.6891 9.4187 86.1167 8.785 86.6206 8.23529C87.1245 7.68557 87.6742 7.31146 88.2697 7.11295C88.4835 7.0366 88.6973 6.98316 88.9111 6.95262C89.1401 6.90681 89.4379 6.89917 89.8043 6.92971C90.1556 6.97552 90.4686 7.06714 90.7434 7.20457C91.0183 7.32673 91.2168 7.46416 91.339 7.61686C91.5833 7.86117 91.7436 8.09786 91.82 8.3269C91.8963 8.55595 91.9269 8.77736 91.9116 8.99114C91.8352 9.47978 91.6138 10.0066 91.2473 10.5716C90.8961 11.1366 90.3999 11.5565 89.7585 11.8313C89.499 11.9382 89.1936 12.0069 88.8423 12.0375C88.4911 12.068 88.0101 12.0222 87.3993 11.9C87.0329 11.8237 86.7886 11.8619 86.6664 12.0146C86.5595 12.1673 86.5137 12.465 86.529 12.9079C86.5595 13.1827 86.6206 13.427 86.7122 13.6408C86.8191 13.8393 87.01 13.9767 87.2848 14.0531C87.636 14.1142 87.888 14.1218 88.0407 14.076C88.1934 14.0149 88.3843 13.9309 88.6133 13.824C88.7355 13.7477 88.85 13.6637 88.9569 13.5721C89.079 13.4805 89.1936 13.3889 89.3004 13.2972C89.4226 13.2056 89.5219 13.1369 89.5982 13.0911C89.6746 13.03 89.7509 12.9918 89.8273 12.9766C89.9036 12.9613 89.98 12.9537 90.0563 12.9537C90.2243 12.9689 90.3846 13.0606 90.5373 13.2285C90.69 13.3965 90.7893 13.5568 90.8351 13.7095C90.8351 13.8317 90.7587 14.0073 90.606 14.2363C90.4533 14.4501 90.2472 14.6792 89.9876 14.9235C89.7433 15.1525 89.4684 15.3587 89.163 15.5419ZM88.8653 10.4341C88.9721 10.3883 89.1248 10.2814 89.3233 10.1135C89.5371 9.94551 89.728 9.7699 89.896 9.58667C90.0639 9.38816 90.1479 9.23546 90.1479 9.12857C90.1479 8.9606 90.0334 8.81554 89.8043 8.69338C89.5906 8.57122 89.3081 8.54832 88.9569 8.62467C88.8347 8.65521 88.6897 8.73919 88.5217 8.87662C88.3537 9.01405 88.1857 9.17438 88.0178 9.35762C87.8498 9.52559 87.7047 9.69356 87.5826 9.86152C87.4604 10.0142 87.3764 10.1364 87.3306 10.228C87.3917 10.3043 87.5139 10.3654 87.6971 10.4112C87.8803 10.457 88.0789 10.48 88.2926 10.48C88.5217 10.48 88.7126 10.4647 88.8653 10.4341ZM94.5453 16.1374C94.0566 16.1374 93.6062 16.0305 93.1939 15.8168C92.7969 15.5877 92.4762 15.3129 92.2319 14.9922C91.9876 14.6563 91.8654 14.3356 91.8654 14.0302C91.8654 13.8928 91.8883 13.7935 91.9341 13.7324C91.9952 13.6713 92.0792 13.6408 92.1861 13.6408C92.2624 13.6561 92.3541 13.6943 92.4609 13.7553C92.5678 13.8164 92.6747 13.8851 92.7816 13.9615C93.0259 14.1294 93.2932 14.2363 93.5833 14.2821C93.8734 14.328 94.133 14.3127 94.362 14.2363C94.5911 14.1447 94.7209 14.0073 94.7514 13.824C94.7514 13.763 94.7209 13.6332 94.6598 13.4347C94.5987 13.2362 94.5224 13.0453 94.4308 12.862C94.049 12.2971 93.8123 11.7626 93.7207 11.2587C93.6291 10.7395 93.568 10.2204 93.5375 9.70119C93.5375 9.48741 93.6367 9.25073 93.8352 8.99114C94.0337 8.71629 94.2781 8.44906 94.5682 8.18948C94.8888 7.91462 95.2401 7.65503 95.6218 7.41071C96.0188 7.1664 96.4082 6.96025 96.7899 6.79229C97.1717 6.62432 97.4924 6.52506 97.7519 6.49452C98.0268 6.49452 98.3169 6.50979 98.6223 6.54033C98.943 6.5556 99.1568 6.60905 99.2637 6.70067C99.4774 6.86863 99.6759 7.14349 99.8592 7.52524C100.042 7.90698 100.134 8.22765 100.134 8.48724C100.134 8.6094 100.065 8.76209 99.9279 8.94533C99.8057 9.1133 99.6912 9.30417 99.5843 9.51795C99.5232 9.62484 99.4698 9.73936 99.424 9.86152C99.3782 9.98368 99.3247 10.1058 99.2637 10.228C99.172 10.4418 99.0041 10.5334 98.7598 10.5029C98.5307 10.457 98.3169 10.3349 98.1184 10.1364C97.9199 9.9226 97.8207 9.67829 97.8207 9.40343C97.8207 9.17438 97.8894 8.97587 98.0268 8.8079C98.1642 8.63994 98.2329 8.52541 98.2329 8.46433C98.2329 8.43379 98.2177 8.41089 98.1871 8.39562C98.1566 8.38035 98.1032 8.37271 98.0268 8.37271C97.9199 8.37271 97.7443 8.41852 97.5 8.51014C97.2709 8.58649 97.0266 8.70102 96.767 8.85371C96.5075 9.00641 96.2708 9.18965 96.057 9.40343C95.9043 9.5714 95.7745 9.75463 95.6676 9.95314C95.576 10.1364 95.5302 10.3349 95.5302 10.5487C95.5302 10.7624 95.5684 11.0144 95.6447 11.3045C95.7363 11.5794 95.8356 11.8084 95.9425 11.9917C95.973 12.0222 96.0188 12.1062 96.0799 12.2436C96.1562 12.3658 96.2402 12.5185 96.3318 12.7017C96.8968 13.8622 96.9885 14.725 96.6067 15.29C96.2402 15.8549 95.5531 16.1374 94.5453 16.1374ZM102.026 15.9771C101.66 15.9771 101.339 15.7862 101.064 15.4045C100.805 15.0075 100.644 14.5341 100.583 13.9844C100.598 13.8622 100.614 13.6866 100.629 13.4576C100.66 13.2285 100.69 12.9918 100.721 12.7475C100.782 12.4574 100.866 12.0833 100.973 11.6252C101.079 11.1671 101.194 10.709 101.316 10.2509C101.438 9.77754 101.545 9.37289 101.637 9.03695C101.728 8.68575 101.782 8.4796 101.797 8.41852C101.889 8.20475 102.095 8.1513 102.416 8.25819C102.736 8.36508 103.011 8.59413 103.24 8.94533C103.332 9.06749 103.385 9.21256 103.4 9.38052C103.431 9.54849 103.408 9.79281 103.332 10.1135C103.271 10.4341 103.149 10.9075 102.965 11.5336C102.797 12.1444 102.668 12.6406 102.576 13.0224C102.5 13.3889 102.469 13.7782 102.484 14.1905C102.423 14.8929 102.362 15.3739 102.301 15.6335C102.24 15.8778 102.148 15.9924 102.026 15.9771ZM104.133 6.47162C104.072 6.51743 104.011 6.54033 103.95 6.54033C103.904 6.52506 103.82 6.47925 103.698 6.4029C103.591 6.38763 103.454 6.31892 103.286 6.19676C103.133 6.05933 102.996 5.9219 102.874 5.78448C102.767 5.64705 102.713 5.56306 102.713 5.53252C102.698 5.37982 102.706 5.13551 102.736 4.79957C102.782 4.46363 102.866 4.1506 102.988 3.86048C103.126 3.55508 103.309 3.39475 103.538 3.37948C103.599 3.37948 103.729 3.41002 103.927 3.47109C104.141 3.53217 104.362 3.60852 104.592 3.70014C104.714 3.92919 104.828 4.22695 104.935 4.59343C105.042 4.9599 105.05 5.31875 104.958 5.66995C104.882 6.00589 104.607 6.27311 104.133 6.47162ZM107.896 20.5122C107.622 20.6497 107.263 20.6802 106.82 20.6039C106.392 20.5275 105.965 20.3748 105.537 20.1458C105.125 19.932 104.789 19.68 104.529 19.3899C104.392 19.2372 104.27 19.054 104.163 18.8402C104.056 18.6264 103.987 18.4203 103.957 18.2218C103.926 18.0385 103.964 17.9164 104.071 17.8553C104.209 17.7637 104.369 17.7179 104.552 17.7179C104.751 17.7179 104.919 17.7408 105.056 17.7866C105.209 17.8324 105.285 17.8858 105.285 17.9469C105.453 18.0996 105.614 18.2294 105.766 18.3363C105.934 18.4584 106.095 18.5501 106.247 18.6111C106.461 18.7028 106.652 18.718 106.82 18.657C107.003 18.6111 107.171 18.5119 107.324 18.3592C107.446 18.1912 107.553 17.9774 107.644 17.7179C107.751 17.4735 107.835 17.191 107.896 16.8704L107.965 16.5726C108.133 15.8091 108.293 15.0914 108.446 14.4196C108.614 13.7324 108.752 13.2362 108.858 12.9308C108.828 12.9308 108.79 12.9384 108.744 12.9537C108.698 12.9689 108.652 12.9918 108.606 13.0224C108.515 13.0682 108.423 13.114 108.332 13.1598C108.24 13.2056 108.148 13.2514 108.057 13.2972C107.858 13.4041 107.683 13.4881 107.53 13.5492C107.377 13.595 107.24 13.6332 107.118 13.6637C106.919 13.7248 106.774 13.7477 106.682 13.7324C106.591 13.7172 106.515 13.7095 106.453 13.7095C106.301 13.7095 106.102 13.6637 105.858 13.5721C105.614 13.4652 105.407 13.3354 105.239 13.1827C105.102 13.0453 105.003 12.9079 104.942 12.7704C104.881 12.6177 104.842 12.4574 104.827 12.2894C104.812 12.1215 104.804 11.9535 104.804 11.7855C104.804 11.5565 104.926 11.1518 105.171 10.5716C105.415 9.97605 105.774 9.39579 106.247 8.83081C106.537 8.54068 106.919 8.25056 107.393 7.96043C107.866 7.6703 108.347 7.42598 108.836 7.22748C109.339 7.0137 109.752 6.90681 110.072 6.90681C110.133 6.90681 110.202 6.91444 110.279 6.92971C110.37 6.94498 110.454 6.98316 110.53 7.04424C110.79 7.10532 111.05 7.25038 111.309 7.47943C111.569 7.69321 111.798 7.9757 111.996 8.3269C112.119 8.57122 112.218 8.83081 112.294 9.10567C112.386 9.38052 112.432 9.67065 112.432 9.97605C112.432 10.2204 112.386 10.4341 112.294 10.6174C112.218 10.7853 112.141 10.8846 112.065 10.9151C112.035 10.9457 111.996 10.9686 111.951 10.9839C111.905 10.9839 111.851 10.9915 111.79 11.0068C111.76 11.0068 111.699 11.022 111.607 11.0526C111.515 11.0984 111.424 11.1824 111.332 11.3045C111.256 11.4114 111.179 11.6023 111.103 11.8771C111.088 11.9535 111.073 12.0298 111.057 12.1062C111.042 12.1825 111.019 12.2589 110.989 12.3352C110.989 12.3505 110.966 12.3887 110.92 12.4498C110.889 12.4956 110.866 12.5567 110.851 12.633C110.836 12.7399 110.805 12.8315 110.76 12.9079C110.729 12.9689 110.698 13.0377 110.668 13.114C110.653 13.1751 110.645 13.2285 110.645 13.2743C110.645 13.3049 110.645 13.3354 110.645 13.366L110.553 13.6179C110.508 13.7706 110.462 13.908 110.416 14.0302C110.385 14.1523 110.37 14.2287 110.37 14.2592L110.279 14.7173C110.248 14.8853 110.21 15.0533 110.164 15.2212C110.133 15.3892 110.103 15.5495 110.072 15.7022C110.042 15.8549 110.004 16.0076 109.958 16.1603C109.622 17.5041 109.278 18.5195 108.927 19.2067C108.591 19.8938 108.248 20.329 107.896 20.5122ZM106.545 11.6252C106.576 11.9611 106.858 12.1062 107.393 12.0604C107.927 11.9993 108.522 11.6786 109.179 11.0984C109.439 10.8846 109.668 10.6403 109.866 10.3654C110.08 10.0906 110.225 9.80808 110.301 9.51795C110.378 9.27363 110.393 9.10567 110.347 9.01405C110.317 8.90716 110.187 8.84608 109.958 8.83081C109.652 8.83081 109.339 8.89952 109.019 9.03695C108.713 9.15911 108.385 9.33471 108.034 9.56376C107.835 9.83862 107.667 10.0142 107.53 10.0906C107.393 10.1669 107.301 10.2051 107.255 10.2051C107.225 10.1898 107.24 10.1975 107.301 10.228C107.27 10.2891 107.24 10.3425 107.209 10.3883C107.179 10.4341 107.148 10.48 107.118 10.5258C107.026 10.6785 106.934 10.8083 106.843 10.9151C106.751 11.022 106.675 11.1289 106.614 11.2358C106.568 11.3427 106.545 11.4725 106.545 11.6252ZM121.095 15.4503C120.76 15.4197 120.477 15.351 120.248 15.2441C120.034 15.122 119.859 14.8853 119.721 14.5341C119.66 14.2898 119.63 14.0378 119.63 13.7782C119.645 13.5034 119.668 13.2438 119.698 12.9995C119.729 12.7399 119.744 12.5185 119.744 12.3352C119.744 12.3047 119.744 12.2436 119.744 12.152C119.744 12.0604 119.744 11.9764 119.744 11.9C119.714 11.671 119.652 11.5336 119.561 11.4878C119.485 11.4267 119.347 11.4343 119.149 11.5107C118.828 11.6634 118.477 11.8695 118.095 12.1291C117.728 12.3734 117.339 12.6635 116.927 12.9995C116.53 13.3201 116.118 13.6637 115.69 14.0302C115.354 14.3967 115.102 14.6944 114.934 14.9235C114.781 15.1525 114.621 15.267 114.453 15.267C114.331 15.3281 114.201 15.3129 114.064 15.2212C113.926 15.1296 113.781 15.0227 113.629 14.9006C113.522 14.7784 113.392 14.6257 113.239 14.4425C113.102 14.244 113.018 14.1142 112.987 14.0531C112.987 13.8088 113.002 13.5874 113.033 13.3889C113.079 13.1903 113.14 12.9842 113.216 12.7704C113.308 12.5567 113.415 12.3123 113.537 12.0375C113.598 11.9306 113.651 11.8237 113.697 11.7168C113.758 11.5947 113.827 11.4649 113.903 11.3274C113.964 11.1137 114.048 10.8693 114.155 10.5945C114.277 10.3196 114.392 10.06 114.499 9.81571C114.667 9.4187 114.797 9.07513 114.888 8.785C114.98 8.49487 115.056 8.18184 115.117 7.8459C115.102 7.81536 115.11 7.76956 115.14 7.70848C115.171 7.6474 115.217 7.60922 115.278 7.59395H115.301H115.323C115.43 7.5176 115.629 7.50997 115.919 7.57105C116.224 7.61686 116.453 7.70084 116.606 7.823C116.927 8.09786 117.08 8.4567 117.064 8.89952C117.049 9.34235 116.82 9.9226 116.377 10.6403C116.27 10.8846 116.156 11.1137 116.034 11.3274C115.927 11.5259 115.873 11.6634 115.873 11.7397C115.873 11.7397 115.934 11.6939 116.056 11.6023C116.179 11.5107 116.324 11.4038 116.492 11.2816C116.66 11.1442 116.805 11.0373 116.927 10.961C117.003 10.8846 117.171 10.7472 117.431 10.5487C117.69 10.3349 117.973 10.1135 118.278 9.88443C118.584 9.65538 118.828 9.47978 119.011 9.35762C119.179 9.23546 119.393 9.1133 119.652 8.99114C119.912 8.85371 120.072 8.785 120.133 8.785C120.286 8.785 120.469 8.83844 120.683 8.94533C120.912 9.05222 121.118 9.18202 121.302 9.33471C121.5 9.47214 121.615 9.60194 121.645 9.72409C121.645 9.78517 121.638 9.86916 121.622 9.97605C121.607 10.0677 121.599 10.1517 121.599 10.228C121.584 10.4723 121.576 10.7701 121.576 11.1213C121.592 11.4572 121.599 11.8008 121.599 12.152C121.599 12.4879 121.569 12.7933 121.508 13.0682C121.508 13.0682 121.515 13.0835 121.531 13.114C121.546 13.1293 121.561 13.1598 121.576 13.2056C121.561 13.2209 121.554 13.2514 121.554 13.2972C121.569 13.3278 121.576 13.343 121.576 13.343C121.607 13.4499 121.638 13.5568 121.668 13.6637C121.714 13.7706 121.767 13.8928 121.828 14.0302C121.89 14.1523 121.958 14.3127 122.035 14.5112C122.019 14.7097 121.905 14.9082 121.691 15.1067C121.492 15.29 121.294 15.4045 121.095 15.4503ZM125.905 16.1374C125.416 16.1374 124.966 16.0305 124.554 15.8168C124.157 15.5877 123.836 15.3129 123.592 14.9922C123.347 14.6563 123.225 14.3356 123.225 14.0302C123.225 13.8928 123.248 13.7935 123.294 13.7324C123.355 13.6713 123.439 13.6408 123.546 13.6408C123.622 13.6561 123.714 13.6943 123.821 13.7553C123.928 13.8164 124.035 13.8851 124.141 13.9615C124.386 14.1294 124.653 14.2363 124.943 14.2821C125.233 14.328 125.493 14.3127 125.722 14.2363C125.951 14.1447 126.081 14.0073 126.111 13.824C126.111 13.763 126.081 13.6332 126.02 13.4347C125.959 13.2362 125.882 13.0453 125.791 12.862C125.409 12.2971 125.172 11.7626 125.081 11.2587C124.989 10.7395 124.928 10.2204 124.897 9.70119C124.897 9.48741 124.997 9.25073 125.195 8.99114C125.394 8.71629 125.638 8.44906 125.928 8.18948C126.249 7.91462 126.6 7.65503 126.982 7.41071C127.379 7.1664 127.768 6.96025 128.15 6.79229C128.532 6.62432 128.852 6.52506 129.112 6.49452C129.387 6.49452 129.677 6.50979 129.982 6.54033C130.303 6.5556 130.517 6.60905 130.623 6.70067C130.837 6.86863 131.036 7.14349 131.219 7.52524C131.402 7.90698 131.494 8.22765 131.494 8.48724C131.494 8.6094 131.425 8.76209 131.288 8.94533C131.166 9.1133 131.051 9.30417 130.944 9.51795C130.883 9.62484 130.83 9.73936 130.784 9.86152C130.738 9.98368 130.685 10.1058 130.623 10.228C130.532 10.4418 130.364 10.5334 130.12 10.5029C129.891 10.457 129.677 10.3349 129.478 10.1364C129.28 9.9226 129.18 9.67829 129.18 9.40343C129.18 9.17438 129.249 8.97587 129.387 8.8079C129.524 8.63994 129.593 8.52541 129.593 8.46433C129.593 8.43379 129.578 8.41089 129.547 8.39562C129.516 8.38035 129.463 8.37271 129.387 8.37271C129.28 8.37271 129.104 8.41852 128.86 8.51014C128.631 8.58649 128.386 8.70102 128.127 8.85371C127.867 9.00641 127.631 9.18965 127.417 9.40343C127.264 9.5714 127.134 9.75463 127.027 9.95314C126.936 10.1364 126.89 10.3349 126.89 10.5487C126.89 10.7624 126.928 11.0144 127.005 11.3045C127.096 11.5794 127.195 11.8084 127.302 11.9917C127.333 12.0222 127.379 12.1062 127.44 12.2436C127.516 12.3658 127.6 12.5185 127.692 12.7017C128.257 13.8622 128.348 14.725 127.967 15.29C127.6 15.8549 126.913 16.1374 125.905 16.1374ZM139.437 17.3743C138.689 17.359 138.208 17.1452 137.994 16.733C137.796 16.3359 137.742 15.832 137.834 15.2212C137.925 14.9311 137.979 14.6715 137.994 14.4425C138.025 14.1982 138.093 14.0455 138.2 13.9844C138.2 13.9844 138.208 13.9615 138.223 13.9157C138.254 13.8699 138.246 13.824 138.2 13.7782C138.2 13.5797 138.269 13.3049 138.406 12.9537C138.437 12.862 138.475 12.7552 138.521 12.633C138.582 12.4956 138.613 12.4269 138.613 12.4269C138.536 12.3047 138.536 12.2054 138.613 12.1291C138.689 12.0527 138.765 11.984 138.842 11.923C138.933 11.8466 138.941 11.7626 138.865 11.671C138.834 11.6099 138.872 11.4725 138.979 11.2587C139.086 11.0297 139.208 10.793 139.346 10.5487C139.483 10.3043 139.575 10.1135 139.62 9.97605C139.62 9.94551 139.659 9.83862 139.735 9.65538C139.811 9.47214 139.903 9.25836 140.01 9.01405C140.117 8.76973 140.216 8.54832 140.308 8.34981C140.414 8.1513 140.483 8.02151 140.514 7.96043C140.666 7.88408 140.605 7.83063 140.33 7.80009C140.056 7.76956 139.765 7.76192 139.46 7.77719C138.987 7.76192 138.605 7.73902 138.315 7.70848C138.04 7.67794 137.811 7.60922 137.628 7.50233C137.444 7.28855 137.422 7.0366 137.559 6.74648C137.696 6.44108 137.918 6.28075 138.223 6.26548C138.422 6.25021 138.574 6.24257 138.681 6.24257C138.803 6.24257 138.956 6.23494 139.139 6.21967C139.338 6.18913 139.643 6.15095 140.056 6.10514L141.224 6.01352L141.292 5.62414C141.415 5.42563 141.499 5.29584 141.544 5.23476C141.59 5.17368 141.621 5.1126 141.636 5.05152C141.651 4.97517 141.674 4.84538 141.705 4.66214C141.705 4.66214 141.773 4.53998 141.911 4.29567C142.048 4.03608 142.132 3.76886 142.163 3.494C142.346 3.1886 142.506 2.91375 142.644 2.66943C142.781 2.40984 142.865 2.24951 142.896 2.18843C143.155 1.80668 143.407 1.60054 143.652 1.57C143.911 1.53946 144.156 1.60054 144.385 1.75324C144.522 1.82959 144.652 1.92884 144.774 2.051C144.896 2.15789 144.972 2.30295 145.003 2.48619C145.034 2.65416 144.965 2.87557 144.797 3.15043C144.766 3.21151 144.721 3.32603 144.659 3.494C144.598 3.6467 144.553 3.77649 144.522 3.88338C144.43 3.99027 144.316 4.16587 144.178 4.41019C144.056 4.63924 143.972 4.87592 143.927 5.12024C143.804 5.37982 143.728 5.54016 143.697 5.60124C143.667 5.66232 143.621 5.69286 143.56 5.69286C143.591 5.84555 143.682 5.9219 143.835 5.9219C143.988 5.90663 144.24 5.89136 144.591 5.87609C144.881 5.84555 145.079 5.81502 145.186 5.78448C145.308 5.73867 145.446 5.75394 145.599 5.83028C145.675 5.93717 145.713 6.09751 145.713 6.31129C145.728 6.50979 145.705 6.7083 145.644 6.90681C145.583 7.09005 145.499 7.20457 145.392 7.25038C145.316 7.25038 145.156 7.29619 144.911 7.38781C144.682 7.46416 144.392 7.50997 144.041 7.52524L142.827 7.63976L142.438 8.41852C142.331 8.61703 142.239 8.80027 142.163 8.96824C142.086 9.12094 142.033 9.21256 142.003 9.24309C142.003 9.33471 141.949 9.47214 141.842 9.65538C141.751 9.83862 141.651 10.0371 141.544 10.2509C141.453 10.5105 141.346 10.7472 141.224 10.961C141.117 11.1747 141.063 11.2816 141.063 11.2816C141.002 11.2816 140.972 11.3274 140.972 11.419C141.048 11.6023 141.025 11.7397 140.903 11.8313C140.827 11.8771 140.758 11.9459 140.697 12.0375C140.651 12.1138 140.628 12.152 140.628 12.152C140.689 12.2131 140.697 12.2894 140.651 12.381C140.621 12.4727 140.575 12.5719 140.514 12.6788C140.514 12.801 140.476 12.9766 140.399 13.2056C140.338 13.4347 140.269 13.6484 140.193 13.847C140.208 14.1218 140.224 14.2974 140.239 14.3738C140.254 14.4501 140.292 14.4807 140.353 14.4654C140.43 14.4807 140.537 14.4807 140.674 14.4654C140.811 14.4501 140.911 14.4425 140.972 14.4425C141.201 14.3356 141.094 14.87 140.651 16.0458C140.407 16.4276 140.162 16.7406 139.918 16.9849C139.674 17.2445 139.514 17.3743 139.437 17.3743ZM147.134 16.2061C146.936 16.2214 146.776 16.1985 146.653 16.1374C146.531 16.0916 146.379 16.0153 146.195 15.9084C145.859 15.6488 145.577 15.3281 145.348 14.9464C145.134 14.5646 145.035 14.244 145.05 13.9844C145.081 13.847 145.081 13.7248 145.05 13.6179C145.035 13.511 145.027 13.4576 145.027 13.4576C144.936 13.3812 144.905 13.3354 144.936 13.3201C144.966 13.2896 144.989 13.2438 145.004 13.1827C145.126 13.1522 145.142 13.0682 145.05 12.9308C145.004 12.8086 145.027 12.5337 145.119 12.1062C145.226 11.6634 145.363 11.2511 145.531 10.8693C145.607 10.7014 145.714 10.48 145.852 10.2051C146.004 9.93024 146.172 9.65538 146.356 9.38052C146.539 9.0904 146.707 8.86135 146.86 8.69338C147.196 8.31163 147.493 7.9986 147.753 7.75429C148.028 7.50997 148.333 7.32673 148.669 7.20457C148.974 7.08241 149.28 7.02897 149.585 7.04424C149.906 7.05951 150.188 7.1664 150.433 7.3649C150.799 7.47179 151.127 7.63976 151.418 7.86881C151.708 8.08259 151.906 8.38798 152.013 8.785C152.135 9.22782 152.173 9.75463 152.128 10.3654C152.097 10.961 151.838 11.7321 151.349 12.6788C151.059 13.2743 150.769 13.7553 150.479 14.1218C150.204 14.4883 149.868 14.8395 149.471 15.1754C149.181 15.4197 148.806 15.6335 148.348 15.8168C147.89 16 147.486 16.1298 147.134 16.2061ZM149.127 12.7475C149.326 12.4727 149.478 12.2054 149.585 11.9459C149.707 11.6863 149.822 11.3274 149.929 10.8693C149.975 10.7014 149.998 10.4952 149.998 10.2509C150.013 10.0066 150.005 9.78517 149.975 9.58667C149.959 9.37289 149.906 9.25836 149.814 9.24309C149.616 9.16675 149.41 9.16675 149.196 9.24309C148.997 9.30417 148.761 9.48741 148.486 9.79281C148.241 10.0677 148.043 10.3273 147.89 10.5716C147.753 10.8006 147.623 11.0831 147.501 11.419C147.394 11.7397 147.272 12.1596 147.134 12.6788C147.012 13.1827 147.005 13.5874 147.112 13.8928C147.234 14.1982 147.463 14.2821 147.799 14.1447C148.135 14.0073 148.577 13.5416 149.127 12.7475ZM161.347 20.581C160.919 20.7489 160.469 20.7184 159.995 20.4893C159.537 20.2756 159.14 19.932 158.804 19.4586C158.743 19.367 158.652 19.199 158.529 18.9547C158.407 18.7257 158.285 18.4737 158.163 18.1989C158.056 17.924 157.972 17.6873 157.911 17.4888C157.865 17.2903 157.865 17.1758 157.911 17.1452C157.972 16.9773 158.109 16.878 158.323 16.8475C158.537 16.8169 158.751 16.8246 158.965 16.8704C159.178 16.9315 159.3 17.0078 159.331 17.0994C159.377 17.2063 159.423 17.3132 159.468 17.4201C159.514 17.5423 159.568 17.6491 159.629 17.7408C159.705 17.8477 159.774 17.9393 159.835 18.0156C160.003 18.2752 160.186 18.4508 160.385 18.5424C160.583 18.6493 160.736 18.6646 160.843 18.5882C161.102 18.3897 161.293 18.153 161.415 17.8782C161.553 17.6186 161.728 17.1529 161.942 16.481C162.11 15.916 162.255 15.4274 162.377 15.0151C162.5 14.6028 162.629 14.2211 162.767 13.8699C162.813 13.6866 162.866 13.5339 162.927 13.4118C163.003 13.2743 163.072 13.1751 163.133 13.114H163.271C162.935 13.3278 162.652 13.5416 162.423 13.7553C162.194 13.9691 161.881 14.16 161.484 14.328C161.392 14.4348 161.163 14.5036 160.797 14.5341C160.446 14.5494 160.102 14.5036 159.766 14.3967C159.552 14.2745 159.377 14.1523 159.239 14.0302C159.117 13.8928 159.01 13.7401 158.919 13.5721C158.842 13.4041 158.758 13.2056 158.667 12.9766C158.56 12.7475 158.545 12.3734 158.621 11.8542C158.697 11.3351 158.835 10.8159 159.033 10.2967C159.217 9.91497 159.484 9.50268 159.835 9.05986C160.186 8.61703 160.56 8.22002 160.957 7.86881C161.354 7.50233 161.713 7.27329 162.034 7.18167C162.156 7.12059 162.37 7.05187 162.675 6.97552C162.981 6.8839 163.271 6.87627 163.546 6.95262C163.805 6.98316 164.004 7.04424 164.141 7.13586C164.278 7.21221 164.5 7.38017 164.805 7.63976C165.004 7.83827 165.248 8.09786 165.538 8.41852C165.828 8.72392 166.012 8.98351 166.088 9.19729C166.195 9.42633 166.218 9.67829 166.157 9.95314C166.096 10.2127 165.989 10.4418 165.836 10.6403C165.699 10.8388 165.553 11.0373 165.401 11.2358C165.248 11.4343 165.134 11.7092 165.057 12.0604C164.981 12.5185 164.836 13.0377 164.622 13.6179C164.408 14.1829 164.24 14.7097 164.118 15.1983L163.752 16.6184C163.37 17.9164 162.95 18.8555 162.492 19.4357C162.034 20.0312 161.652 20.413 161.347 20.581ZM160.866 12.7017C161.171 12.6864 161.431 12.6559 161.644 12.6101C161.873 12.549 162.087 12.4269 162.286 12.2436C162.484 12.0451 162.713 11.7473 162.973 11.3503C163.232 10.9839 163.416 10.6479 163.523 10.3425C163.629 10.0371 163.668 9.69355 163.637 9.31181C163.622 9.06749 163.553 8.90716 163.431 8.83081C163.309 8.75446 163.148 8.73156 162.95 8.76209C162.66 8.8079 162.4 8.93006 162.171 9.12857C161.942 9.31181 161.675 9.60194 161.37 9.99895C161.141 10.3043 160.95 10.6708 160.797 11.0984C160.644 11.5565 160.576 11.923 160.591 12.1978C160.621 12.4727 160.713 12.6406 160.866 12.7017ZM168.911 15.519C168.865 15.5343 168.766 15.5266 168.613 15.4961C168.476 15.4656 168.331 15.4274 168.178 15.3816C168.041 15.3358 167.957 15.2976 167.926 15.267C167.865 15.206 167.781 15.0991 167.674 14.9464C167.567 14.7784 167.506 14.557 167.491 14.2821C167.491 14.0073 167.621 13.679 167.88 13.2972C167.957 13.1445 168.048 12.9155 168.155 12.6101C168.262 12.3047 168.369 11.984 168.476 11.6481C168.598 11.2969 168.705 10.9839 168.797 10.709C168.904 10.4341 168.98 10.2433 169.026 10.1364C169.056 9.87679 169.041 9.69356 168.98 9.58667C168.934 9.46451 168.804 9.39579 168.59 9.38052C168.438 9.38052 168.316 9.32708 168.224 9.22019C168.148 9.1133 168.109 8.92243 168.109 8.64757C168.14 8.43379 168.193 8.25056 168.27 8.09786C168.361 7.92989 168.484 7.79246 168.636 7.68557C168.789 7.60922 168.98 7.55578 169.209 7.52524C169.453 7.4947 169.69 7.48706 169.919 7.50233C170.148 7.5176 170.308 7.57105 170.4 7.66267C170.507 7.72375 170.591 7.86117 170.652 8.07495C170.728 8.27346 170.789 8.4796 170.835 8.69338C170.881 8.90716 170.911 9.06749 170.927 9.17438C171.079 9.05222 171.247 8.88425 171.431 8.67048C171.629 8.44143 171.828 8.22765 172.026 8.02914C172.271 7.86117 172.561 7.69321 172.897 7.52524C173.233 7.342 173.477 7.25038 173.63 7.25038C173.797 7.25038 174.004 7.33436 174.248 7.50233C174.492 7.65503 174.645 7.79246 174.706 7.91462C174.859 8.17421 174.966 8.44906 175.027 8.73919C175.103 9.01405 175.057 9.25836 174.889 9.47214C174.737 9.67065 174.523 9.86916 174.248 10.0677C173.973 10.2509 173.63 10.3043 173.217 10.228C173.126 10.1975 173.026 10.0829 172.919 9.88443C172.828 9.68592 172.774 9.54086 172.759 9.44924C172.759 9.40343 172.69 9.44924 172.553 9.58667C172.431 9.70883 172.278 9.86152 172.095 10.0448C171.927 10.228 171.767 10.396 171.614 10.5487C171.354 10.8693 171.079 11.3045 170.789 11.8542C170.499 12.404 170.156 13.0682 169.759 13.847C169.575 14.2287 169.423 14.5952 169.301 14.9464C169.178 15.2823 169.049 15.4732 168.911 15.519ZM176.89 15.8397C176.692 15.8397 176.531 15.8015 176.409 15.7251C176.302 15.6488 176.165 15.5419 175.997 15.4045C175.707 15.0991 175.47 14.7708 175.287 14.4196C175.119 14.0684 175.058 13.763 175.103 13.5034C175.149 13.3812 175.165 13.2667 175.149 13.1598C175.149 13.0377 175.149 12.9766 175.149 12.9766C175.073 12.9002 175.05 12.8544 175.081 12.8391C175.111 12.8086 175.142 12.7628 175.172 12.7017C175.264 12.7017 175.294 12.6177 175.264 12.4498C175.233 12.3276 175.279 12.068 175.401 11.671C175.539 11.2587 175.722 10.8693 175.951 10.5029C176.043 10.3502 176.18 10.1517 176.363 9.90733C176.546 9.64775 176.745 9.39579 176.959 9.15148C177.188 8.89189 177.394 8.68575 177.577 8.53305C177.959 8.21238 178.31 7.95279 178.631 7.75429C178.967 7.55578 179.303 7.41835 179.639 7.342C179.975 7.26565 180.318 7.22748 180.669 7.22748C181.036 7.22748 181.334 7.34963 181.563 7.59395C181.914 7.74665 182.158 7.95279 182.296 8.21238C182.448 8.47197 182.548 8.8079 182.593 9.22019C182.639 9.67829 182.593 10.2433 182.456 10.9151C182.318 11.5717 181.944 12.3352 181.334 13.2056C180.952 13.7553 180.578 14.1829 180.211 14.4883C179.845 14.7937 179.44 15.0762 178.997 15.3358C178.677 15.5495 178.333 15.6793 177.967 15.7251C177.6 15.771 177.241 15.8091 176.89 15.8397ZM179.226 13.0453C179.562 12.7552 179.799 12.4345 179.936 12.0833C180.089 11.7321 180.249 11.3198 180.417 10.8464C180.478 10.7548 180.517 10.6021 180.532 10.3883C180.562 10.1746 180.57 9.96841 180.555 9.7699C180.54 9.55613 180.486 9.43397 180.394 9.40343C180.257 9.29654 180.12 9.27363 179.982 9.33471C179.845 9.38052 179.669 9.47978 179.455 9.63248C178.997 10.0142 178.57 10.457 178.173 10.961C177.791 11.4496 177.524 12.0527 177.371 12.7704C177.325 13.1522 177.363 13.4423 177.486 13.6408C177.623 13.824 177.837 13.8775 178.127 13.8011C178.432 13.7095 178.799 13.4576 179.226 13.0453ZM190.411 15.6793C190.289 15.6946 190.067 15.6259 189.747 15.4732C189.441 15.3205 189.197 15.1449 189.014 14.9464C188.876 14.7326 188.762 14.473 188.67 14.1676C188.594 13.8622 188.54 13.4499 188.51 12.9308C188.067 13.6026 187.685 14.1065 187.364 14.4425C187.044 14.7784 186.754 15.0227 186.494 15.1754C186.25 15.3129 186.005 15.4197 185.761 15.4961C185.624 15.5419 185.44 15.4808 185.211 15.3129C184.982 15.1449 184.837 15.0075 184.776 14.9006C184.715 14.7937 184.646 14.6257 184.57 14.3967C184.509 14.1523 184.486 13.9004 184.501 13.6408C184.471 13.3201 184.44 12.9537 184.41 12.5414C184.395 12.1291 184.379 11.7244 184.364 11.3274C184.364 10.9151 184.372 10.5487 184.387 10.228C184.402 9.90733 184.433 9.69356 184.478 9.58667C184.463 9.52559 184.456 9.46451 184.456 9.40343C184.456 9.34235 184.456 9.31181 184.456 9.31181C184.41 9.23546 184.387 9.06749 184.387 8.8079C184.387 8.53305 184.402 8.26582 184.433 8.00624C184.478 7.74665 184.509 7.58632 184.524 7.52524C184.555 7.46416 184.677 7.38781 184.891 7.29619C185.12 7.1893 185.273 7.12822 185.349 7.11295C185.578 7.15876 185.7 7.25038 185.715 7.38781C185.761 7.41835 185.807 7.46416 185.853 7.52524C185.899 7.57105 185.952 7.58632 186.013 7.57105C186.059 7.60159 186.12 7.77719 186.196 8.09786C186.288 8.40325 186.334 8.71629 186.334 9.03695C186.319 9.18965 186.319 9.33471 186.334 9.47214C186.349 9.60957 186.341 9.73173 186.311 9.83862C186.311 9.91497 186.319 10.0829 186.334 10.3425C186.349 10.5868 186.364 10.8388 186.38 11.0984C186.38 11.2969 186.372 11.503 186.357 11.7168C186.341 11.9306 186.334 12.1444 186.334 12.3581C186.38 12.6635 186.387 12.862 186.357 12.9537C186.326 13.03 186.357 13.0377 186.448 12.9766C186.54 12.946 186.67 12.8086 186.838 12.5643C187.006 12.3047 187.25 11.9 187.571 11.3503C187.815 10.9839 187.998 10.6708 188.12 10.4112C188.258 10.1364 188.388 9.9226 188.51 9.7699C188.556 9.40343 188.601 9.07513 188.647 8.785C188.708 8.49487 188.746 8.28873 188.762 8.16657C188.975 7.95279 189.22 7.80009 189.495 7.70848C189.785 7.61686 189.983 7.67794 190.09 7.89171C190.243 7.95279 190.396 8.07495 190.548 8.25819C190.701 8.44143 190.762 8.61703 190.731 8.785C190.67 8.99878 190.609 9.20492 190.548 9.40343C190.502 9.60194 190.449 9.80808 190.388 10.0219C190.327 10.2356 190.273 10.5334 190.228 10.9151C190.182 11.2969 190.151 11.6786 190.136 12.0604C190.136 12.4269 190.167 12.7246 190.228 12.9537C190.243 13.0911 190.289 13.1827 190.365 13.2285C190.441 13.2591 190.594 13.1751 190.823 12.9766C191.052 12.7323 191.274 12.4574 191.487 12.152C191.701 11.8466 191.877 11.5717 192.014 11.3274C192.167 11.0678 192.243 10.8999 192.243 10.8235C192.243 10.7014 192.274 10.5716 192.335 10.4341C192.396 10.2814 192.472 10.1669 192.564 10.0906C192.64 9.99895 192.686 9.90733 192.701 9.81571C192.717 9.70883 192.747 9.60194 192.793 9.49505C192.808 9.46451 192.831 9.4187 192.862 9.35762C192.892 9.29654 192.915 9.23546 192.93 9.17438C192.885 9.06749 192.915 8.97587 193.022 8.89952C193.144 8.8079 193.22 8.71629 193.251 8.62467C193.282 8.42616 193.411 8.27346 193.64 8.16657C193.885 8.05968 194.121 8.04441 194.35 8.12076C194.595 8.19711 194.725 8.42616 194.74 8.8079C194.74 8.99114 194.709 9.25836 194.648 9.60957C194.587 9.96078 194.488 10.3349 194.35 10.7319C194.213 11.1289 194.03 11.4878 193.801 11.8084C193.74 11.9306 193.679 12.0527 193.617 12.1749C193.572 12.2971 193.488 12.4574 193.366 12.6559C193.243 12.8544 193.03 13.1445 192.724 13.5263C192.633 13.6484 192.526 13.7782 192.404 13.9157C192.297 14.0378 192.182 14.1523 192.06 14.2592C191.8 14.5952 191.51 14.9158 191.19 15.2212C190.884 15.5114 190.625 15.6641 190.411 15.6793ZM200.69 20.7642C200.141 20.8711 199.614 20.8863 199.11 20.81C198.606 20.7489 198.186 20.6191 197.85 20.4206C197.499 20.2221 197.285 20.0007 197.209 19.7564C197.117 19.4052 197.163 19.1456 197.346 18.9776C197.529 18.8097 197.751 18.7104 198.01 18.6799C198.255 18.6493 198.415 18.6799 198.491 18.7715C198.614 18.8478 198.804 18.9623 199.064 19.115C199.339 19.2677 199.675 19.3059 200.072 19.2296C200.423 19.1532 200.736 18.9853 201.011 18.7257C201.286 18.4661 201.53 18.1912 201.744 17.9011C201.866 17.7179 202.072 17.3896 202.362 16.9162C202.652 16.4428 202.95 15.9237 203.256 15.3587C203.576 14.7784 203.843 14.244 204.057 13.7553C204.103 13.6332 204.156 13.4881 204.218 13.3201C204.279 13.1522 204.355 13.0147 204.447 12.9079C204.538 12.7246 204.615 12.5567 204.676 12.404C204.752 12.236 204.798 12.1215 204.813 12.0604C204.828 11.984 204.897 11.8313 205.019 11.6023C205.141 11.3732 205.256 11.1442 205.363 10.9151C205.439 10.6861 205.554 10.3502 205.706 9.90733C205.859 9.46451 206.012 9.10567 206.164 8.83081C206.348 8.4796 206.493 8.19711 206.6 7.98333C206.722 7.75429 206.852 7.61686 206.989 7.57105C207.126 7.46416 207.256 7.41071 207.378 7.41071C207.501 7.41071 207.646 7.45652 207.814 7.54814C207.997 7.73138 208.142 7.91462 208.249 8.09786C208.371 8.26582 208.417 8.4796 208.386 8.73919C208.371 8.98351 208.249 9.31944 208.02 9.747C207.898 10.1135 207.76 10.4494 207.607 10.7548C207.47 11.0449 207.363 11.2358 207.287 11.3274C207.21 11.5107 207.119 11.7168 207.012 11.9459C206.92 12.1596 206.836 12.3581 206.76 12.5414C206.485 13.1522 206.248 13.6484 206.05 14.0302C205.851 14.4119 205.676 14.7631 205.523 15.0838C205.37 15.4045 205.21 15.7786 205.042 16.2061C204.691 16.7711 204.347 17.3056 204.011 17.8095C203.691 18.3287 203.347 18.8097 202.981 19.2525C202.828 19.3899 202.607 19.5655 202.316 19.7793C202.042 20.0083 201.751 20.2145 201.446 20.3977C201.156 20.5962 200.904 20.7184 200.69 20.7642ZM203.553 15.5877C203.324 15.5572 203.072 15.4045 202.797 15.1296C202.538 14.8548 202.316 14.5646 202.133 14.2592C201.965 13.9538 201.897 13.7401 201.927 13.6179C201.927 13.5416 201.927 13.4805 201.927 13.4347C201.927 13.3889 201.927 13.366 201.927 13.366C201.835 13.366 201.759 13.2362 201.698 12.9766C201.652 12.7017 201.614 12.3581 201.584 11.9459C201.568 11.5336 201.561 11.106 201.561 10.6632C201.576 10.2204 201.599 9.81571 201.629 9.44924C201.69 9.18965 201.721 8.90716 201.721 8.60176C201.721 8.28109 201.729 8.02914 201.744 7.8459C201.729 7.60159 201.774 7.40308 201.881 7.25038C202.003 7.09768 202.095 6.99843 202.156 6.95262C202.721 6.7083 203.133 6.83809 203.393 7.342C203.653 7.8459 203.744 8.64757 203.668 9.747C203.637 10.3578 203.622 10.9457 203.622 11.5107C203.622 12.0604 203.675 12.5337 203.782 12.9308C203.889 13.3278 204.073 13.6103 204.332 13.7782C204.439 13.8393 204.477 13.9691 204.447 14.1676C204.416 14.3661 204.347 14.5799 204.24 14.809C204.134 15.0227 204.011 15.2136 203.874 15.3816C203.752 15.5343 203.645 15.603 203.553 15.5877ZM210.993 15.8168C210.673 15.8778 210.428 15.8626 210.26 15.771C210.108 15.6641 209.947 15.5343 209.779 15.3816C209.535 15.2594 209.314 15.0914 209.115 14.8777C208.917 14.6486 208.764 14.4119 208.657 14.1676C208.55 13.9233 208.504 13.7324 208.52 13.595C208.565 13.0606 208.688 12.4803 208.886 11.8542C209.1 11.2282 209.367 10.6174 209.688 10.0219C210.024 9.42633 210.398 8.89952 210.81 8.44143C211.238 7.96806 211.696 7.62449 212.184 7.41071C212.49 7.28855 212.818 7.24275 213.169 7.27329C213.52 7.30383 213.757 7.44889 213.879 7.70848C214.108 8.1513 214.055 8.43379 213.719 8.55595C213.673 8.55595 213.62 8.57886 213.559 8.62467C213.498 8.65521 213.467 8.70102 213.467 8.76209C213.528 8.79263 213.696 8.80027 213.971 8.785C214.246 8.75446 214.521 8.70865 214.795 8.64757C215.086 8.57122 215.276 8.49487 215.368 8.41852C215.46 8.37271 215.528 8.34981 215.574 8.34981C215.62 8.34981 215.735 8.36508 215.918 8.39562C216.177 8.47197 216.307 8.56359 216.307 8.67048C216.307 8.73156 216.33 8.83081 216.376 8.96824C216.422 9.0904 216.475 9.15148 216.536 9.15148C216.643 9.16675 216.666 9.27363 216.605 9.47214C216.559 9.67065 216.384 9.87679 216.078 10.0906C215.788 10.2738 215.605 10.396 215.528 10.457C215.467 10.5029 215.46 10.6097 215.506 10.7777C215.628 11.0678 215.62 11.419 215.483 11.8313C215.345 12.2436 215.116 12.6712 214.795 13.114C214.475 13.5568 214.093 13.9767 213.65 14.3738C213.223 14.7555 212.772 15.0838 212.299 15.3587C211.841 15.6183 211.406 15.771 210.993 15.8168ZM211.062 13.8928C211.123 13.8928 211.23 13.8622 211.383 13.8011C211.535 13.7248 211.658 13.6637 211.749 13.6179C211.81 13.5568 211.887 13.4881 211.978 13.4118C212.085 13.3201 212.169 13.2667 212.23 13.2514C212.291 13.2514 212.329 13.2285 212.345 13.1827C212.36 13.1216 212.413 13.0071 212.505 12.8391C212.597 12.6559 212.78 12.3887 213.055 12.0375C213.36 11.7015 213.559 11.4343 213.65 11.2358C213.742 11.022 213.749 10.793 213.673 10.5487C213.658 10.4876 213.612 10.4494 213.536 10.4341C213.475 10.4189 213.391 10.3807 213.284 10.3196C213.131 10.3196 213.024 10.3578 212.963 10.4341C212.917 10.4952 212.81 10.457 212.642 10.3196L212.276 9.86152L211.887 10.2509C211.642 10.4952 211.421 10.8006 211.222 11.1671C211.039 11.5336 210.894 11.9077 210.787 12.2894C210.68 12.6712 210.612 13.0071 210.581 13.2972C210.566 13.5263 210.604 13.679 210.696 13.7553C210.787 13.8317 210.909 13.8775 211.062 13.8928ZM218.719 15.1983C218.429 14.9387 218.177 14.6715 217.963 14.3967C217.75 14.1065 217.604 13.6637 217.528 13.0682C217.498 12.7933 217.528 12.4116 217.62 11.923C217.711 11.4343 217.849 10.9228 218.032 10.3883C218.215 9.83862 218.414 9.33471 218.628 8.87662C218.841 8.41852 219.055 8.08259 219.269 7.86881C219.452 7.63976 219.681 7.45652 219.956 7.31909C220.246 7.18167 220.544 7.18167 220.849 7.31909C221.017 7.5176 221.101 7.79246 221.101 8.14367C221.117 8.4796 221.033 8.79263 220.849 9.08276C220.544 9.49505 220.277 10.0142 220.048 10.6403C219.834 11.2511 219.689 11.8008 219.612 12.2894C219.506 12.6406 219.46 12.9155 219.475 13.114C219.49 13.2972 219.597 13.4118 219.796 13.4576C220.086 13.5339 220.384 13.4499 220.689 13.2056C221.01 12.9613 221.315 12.6025 221.605 12.1291C221.911 11.6557 222.178 11.1137 222.407 10.5029C222.498 10.2891 222.567 10.0371 222.613 9.747C222.674 9.45687 222.735 9.24309 222.796 9.10567C222.873 8.80027 223.002 8.56359 223.186 8.39562C223.384 8.21238 223.59 8.09786 223.804 8.05205C224.018 8.00624 224.178 8.02914 224.285 8.12076C224.422 8.18184 224.568 8.28109 224.72 8.41852C224.873 8.55595 224.934 8.80027 224.903 9.15148C224.903 9.71646 224.781 10.1975 224.537 10.5945C224.293 10.9915 224.087 11.4114 223.919 11.8542C223.781 12.1749 223.56 12.549 223.254 12.9766C222.949 13.4041 222.621 13.7935 222.269 14.1447C221.933 14.4959 221.62 14.7326 221.33 14.8548C220.903 15.1296 220.468 15.2976 220.025 15.3587C219.582 15.4045 219.147 15.351 218.719 15.1983ZM227.426 15.519C227.38 15.5343 227.281 15.5266 227.128 15.4961C226.99 15.4656 226.845 15.4274 226.693 15.3816C226.555 15.3358 226.471 15.2976 226.441 15.267C226.38 15.206 226.296 15.0991 226.189 14.9464C226.082 14.7784 226.021 14.557 226.006 14.2821C226.006 14.0073 226.135 13.679 226.395 13.2972C226.471 13.1445 226.563 12.9155 226.67 12.6101C226.777 12.3047 226.884 11.984 226.99 11.6481C227.113 11.2969 227.22 10.9839 227.311 10.709C227.418 10.4341 227.494 10.2433 227.54 10.1364C227.571 9.87679 227.555 9.69356 227.494 9.58667C227.449 9.46451 227.319 9.39579 227.105 9.38052C226.952 9.38052 226.83 9.32708 226.739 9.22019C226.662 9.1133 226.624 8.92243 226.624 8.64757C226.655 8.43379 226.708 8.25056 226.784 8.09786C226.876 7.92989 226.998 7.79246 227.151 7.68557C227.303 7.60922 227.494 7.55578 227.723 7.52524C227.968 7.4947 228.204 7.48706 228.433 7.50233C228.663 7.5176 228.823 7.57105 228.914 7.66267C229.021 7.72375 229.105 7.86117 229.166 8.07495C229.243 8.27346 229.304 8.4796 229.35 8.69338C229.395 8.90716 229.426 9.06749 229.441 9.17438C229.594 9.05222 229.762 8.88425 229.945 8.67048C230.144 8.44143 230.342 8.22765 230.541 8.02914C230.785 7.86117 231.075 7.69321 231.411 7.52524C231.747 7.342 231.991 7.25038 232.144 7.25038C232.312 7.25038 232.518 7.33436 232.762 7.50233C233.007 7.65503 233.159 7.79246 233.221 7.91462C233.373 8.17421 233.48 8.44906 233.541 8.73919C233.618 9.01405 233.572 9.25836 233.404 9.47214C233.251 9.67065 233.037 9.86916 232.762 10.0677C232.488 10.2509 232.144 10.3043 231.732 10.228C231.64 10.1975 231.541 10.0829 231.434 9.88443C231.342 9.68592 231.289 9.54086 231.274 9.44924C231.274 9.40343 231.205 9.44924 231.068 9.58667C230.945 9.70883 230.793 9.86152 230.609 10.0448C230.441 10.228 230.281 10.396 230.128 10.5487C229.869 10.8693 229.594 11.3045 229.304 11.8542C229.014 12.404 228.67 13.0682 228.273 13.847C228.09 14.2287 227.937 14.5952 227.815 14.9464C227.693 15.2823 227.563 15.4732 227.426 15.519ZM240.631 14.8319C240.631 14.7097 240.616 14.5952 240.585 14.4883C240.555 14.3814 240.57 14.2974 240.631 14.2363L240.814 14.2821C240.753 14.2974 240.631 14.305 240.448 14.305C240.28 14.2898 240.12 14.2669 239.967 14.2363C239.829 14.1905 239.753 14.1523 239.738 14.1218C239.753 13.8622 239.768 13.6637 239.784 13.5263C239.814 13.3889 239.852 13.2743 239.898 13.1827C239.898 13.0453 239.944 12.8697 240.036 12.6559C240.127 12.4421 240.204 12.2207 240.265 11.9917C240.326 11.7321 240.402 11.3427 240.494 10.8235C240.601 10.3043 240.753 9.80808 240.952 9.33471C241.074 8.9377 241.227 8.44143 241.41 7.8459C241.593 7.23511 241.769 6.73121 241.937 6.33419C242.12 5.63178 242.288 5.06679 242.441 4.63924C242.609 4.19641 242.777 3.7994 242.945 3.44819C243.128 3.08171 243.326 2.66943 243.54 2.21133C243.601 2.08917 243.662 1.93648 243.723 1.75324C243.784 1.55473 243.838 1.38676 243.884 1.24933C244.021 1.00501 244.212 0.852317 244.456 0.791237C244.716 0.730158 244.937 0.791237 245.12 0.974476C245.288 1.14244 245.418 1.29514 245.51 1.43257C245.601 1.55473 245.624 1.76087 245.579 2.051C245.548 2.32586 245.403 2.78395 245.143 3.42528C245.036 3.57798 244.914 3.83757 244.777 4.20405C244.655 4.55525 244.54 4.86829 244.433 5.14314C244.204 5.67759 244.021 6.13568 243.884 6.51743C243.746 6.89917 243.616 7.28855 243.494 7.68557C243.387 8.11313 243.25 8.53305 243.082 8.94533C242.914 9.34235 242.754 9.77754 242.601 10.2509L242.234 10.3654C242.341 10.228 242.471 10.0677 242.624 9.88443C242.792 9.70119 242.945 9.53322 243.082 9.38052C243.235 9.22782 243.334 9.12857 243.38 9.08276C243.792 8.73156 244.25 8.42616 244.754 8.16657C245.258 7.90698 245.731 7.72375 246.174 7.61686C246.632 7.4947 246.976 7.47943 247.205 7.57105C247.48 7.66267 247.747 7.86117 248.006 8.16657C248.266 8.4567 248.442 8.82317 248.533 9.266C248.655 9.51032 248.64 9.83098 248.487 10.228C248.35 10.625 248.136 11.0907 247.846 11.6252C247.587 12.0986 247.289 12.5567 246.953 12.9995C246.617 13.427 246.296 13.7859 245.991 14.076C245.884 14.1371 245.747 14.244 245.579 14.3967C245.426 14.5341 245.288 14.6715 245.166 14.809C244.846 15.0991 244.449 15.3129 243.975 15.4503C243.517 15.5724 243.051 15.6335 242.578 15.6335C242.105 15.6183 241.685 15.5419 241.318 15.4045C240.967 15.267 240.738 15.0762 240.631 14.8319ZM241.318 13.8699C241.395 13.8851 241.471 13.9004 241.547 13.9157C241.624 13.9157 241.708 13.9157 241.799 13.9157C242.135 13.8699 242.402 13.8546 242.601 13.8699C242.815 13.8699 243.021 13.847 243.219 13.8011C243.433 13.7553 243.677 13.6484 243.952 13.4805C244.349 13.1751 244.678 12.8468 244.937 12.4956C245.212 12.1444 245.495 11.7855 245.785 11.419C246.044 11.0831 246.25 10.7472 246.403 10.4112C246.556 10.06 246.632 9.75463 246.632 9.49505C246.632 9.35762 246.594 9.2889 246.518 9.2889C246.487 9.2889 246.35 9.33471 246.105 9.42633C245.861 9.50268 245.609 9.60194 245.35 9.72409C245.105 9.83098 244.945 9.9226 244.869 9.99895C244.869 10.06 244.823 10.1135 244.731 10.1593C244.639 10.1898 244.594 10.2051 244.594 10.2051C244.12 10.5563 243.769 10.8312 243.54 11.0297C243.326 11.2129 243.128 11.419 242.945 11.6481C242.838 11.8008 242.754 11.9153 242.693 11.9917C242.631 12.0527 242.578 12.1138 242.532 12.1749C242.486 12.2207 242.418 12.3123 242.326 12.4498C242.234 12.5872 242.097 12.801 241.914 13.0911C241.807 13.2896 241.7 13.4805 241.593 13.6637C241.486 13.847 241.395 13.9538 241.318 13.9844V13.8699ZM254.977 15.9542C254.825 15.8015 254.702 15.5953 254.611 15.3358C254.519 15.0609 254.427 14.7479 254.336 14.3967C254.305 14.2745 254.29 14.1371 254.29 13.9844C254.305 13.8317 254.305 13.7095 254.29 13.6179C254.244 13.7248 254.168 13.8622 254.061 14.0302C253.969 14.1982 253.878 14.3203 253.786 14.3967C253.725 14.4577 253.588 14.5799 253.374 14.7631C253.16 14.9311 252.946 15.0685 252.733 15.1754C252.229 15.4961 251.778 15.6488 251.381 15.6335C250.999 15.603 250.663 15.4045 250.373 15.038C250.129 14.8395 249.931 14.5875 249.778 14.2821C249.625 13.9767 249.595 13.6103 249.686 13.1827C249.717 12.6483 249.793 12.1291 249.915 11.6252C250.037 11.106 250.289 10.4189 250.671 9.56376C250.992 8.9377 251.236 8.44906 251.404 8.09786C251.572 7.74665 251.679 7.54051 251.725 7.47943C251.954 7.40308 252.236 7.41071 252.572 7.50233C252.908 7.57868 253.091 7.72375 253.122 7.93752C253.214 8.09022 253.214 8.38035 253.122 8.8079C253.03 9.22019 252.847 9.69356 252.572 10.228C252.358 10.7472 252.152 11.2511 251.954 11.7397C251.771 12.2283 251.656 12.6406 251.61 12.9766C251.58 13.3125 251.671 13.5187 251.885 13.595C252.022 13.6713 252.221 13.6637 252.481 13.5721C252.755 13.4805 253.076 13.2056 253.443 12.7475C253.809 12.2894 254.198 11.5641 254.611 10.5716C254.733 10.2662 254.825 9.99895 254.886 9.7699C254.947 9.52559 254.985 9.25836 255 8.96824C254.97 8.785 255.015 8.59413 255.138 8.39562C255.275 8.19711 255.435 8.04441 255.619 7.93752C255.68 7.86117 255.764 7.79246 255.87 7.73138C255.977 7.65503 256.046 7.65503 256.077 7.73138L256.443 7.70848C256.504 7.69321 256.573 7.75429 256.649 7.89171C256.726 8.02914 256.802 8.1284 256.878 8.18948C257.046 8.3269 257.123 8.62467 257.107 9.08276C257.092 9.54086 256.909 10.1822 256.558 11.0068C256.268 11.6328 256.069 12.1062 255.962 12.4269C255.87 12.7475 255.817 13.0606 255.802 13.366C255.802 13.6408 255.825 13.8775 255.87 14.076C255.916 14.2592 256.054 14.4501 256.283 14.6486C256.451 14.7555 256.542 14.9387 256.558 15.1983C256.588 15.4427 256.596 15.6564 256.581 15.8397C256.55 15.9771 256.428 16.0687 256.214 16.1145C256.016 16.1756 255.794 16.1909 255.55 16.1603C255.321 16.1298 255.13 16.0611 254.977 15.9542ZM259.263 16.1374C258.744 15.9237 258.362 15.7022 258.118 15.4732C257.889 15.2289 257.797 15.0151 257.843 14.8319C257.874 14.7402 257.927 14.6563 258.003 14.5799C258.08 14.5036 258.248 14.473 258.507 14.4883C258.782 14.4883 259.202 14.557 259.767 14.6944C259.935 14.6944 260.103 14.6868 260.271 14.6715C260.439 14.6563 260.592 14.6333 260.729 14.6028C260.882 14.5723 261.004 14.5341 261.095 14.4883C261.172 14.4577 261.195 14.4196 261.164 14.3738C261.134 14.3127 261.08 14.2516 261.004 14.1905C260.943 14.1142 260.874 14.0684 260.798 14.0531C260.721 14.0226 260.653 14.0073 260.592 14.0073C260.561 13.9309 260.492 13.8546 260.385 13.7782C260.294 13.7019 260.179 13.6179 260.042 13.5263C259.706 13.2514 259.401 13.0071 259.126 12.7933C258.851 12.5796 258.744 12.4192 258.805 12.3123C258.805 12.2513 258.805 12.2207 258.805 12.2207C258.805 12.2054 258.805 12.1978 258.805 12.1978C258.698 12.1978 258.599 12.0527 258.507 11.7626C258.416 11.4572 258.37 11.1824 258.37 10.938C258.37 10.6327 258.431 10.3273 258.553 10.0219C258.69 9.71646 258.858 9.42633 259.057 9.15148C259.271 8.87662 259.485 8.6323 259.698 8.41852C259.988 8.14367 260.294 7.87644 260.614 7.61686C260.95 7.342 261.309 7.09768 261.691 6.8839C262.088 6.67013 262.523 6.50216 262.997 6.38C263.21 6.33419 263.455 6.31129 263.73 6.31129C264.004 6.31129 264.203 6.34946 264.325 6.42581C264.447 6.34946 264.6 6.37236 264.783 6.49452C264.966 6.60141 265.15 6.75411 265.333 6.95262C265.516 7.15113 265.654 7.34963 265.745 7.54814C265.745 7.73138 265.738 7.96043 265.722 8.23529C265.722 8.49487 265.707 8.72392 265.676 8.92243C265.646 9.12094 265.577 9.22019 265.47 9.22019C265.47 9.22019 265.447 9.22783 265.402 9.24309C265.371 9.24309 265.356 9.28127 265.356 9.35762C265.356 9.51032 265.241 9.68592 265.012 9.88443C264.722 10.0829 264.447 10.2433 264.188 10.3654C263.928 10.4876 263.73 10.4952 263.592 10.3883C263.5 10.3273 263.416 10.2662 263.34 10.2051C263.264 10.144 263.195 10.0677 263.134 9.97605C263.134 9.97605 263.111 9.94551 263.065 9.88443C263.035 9.80808 263.019 9.73936 263.019 9.67829C263.019 9.61721 263.042 9.56376 263.088 9.51795C263.134 9.45687 263.157 9.42633 263.157 9.42633C263.371 9.22783 263.531 9.04459 263.638 8.87662C263.76 8.70865 263.844 8.56359 263.89 8.44143C263.936 8.304 263.959 8.19711 263.959 8.12076C263.959 8.02914 263.936 7.9757 263.89 7.96043C263.859 7.92989 263.783 7.91462 263.661 7.91462C263.584 7.91462 263.416 7.9757 263.157 8.09786C262.913 8.22002 262.653 8.37271 262.378 8.55595C262.103 8.72392 261.89 8.87662 261.737 9.01405C261.676 9.12094 261.63 9.18965 261.599 9.22019C261.584 9.25073 261.546 9.266 261.485 9.266C261.485 9.20492 261.447 9.21256 261.37 9.2889C261.294 9.36525 261.202 9.47214 261.095 9.60957C260.989 9.747 260.882 9.89206 260.775 10.0448C260.668 10.1975 260.584 10.3196 260.523 10.4112C260.508 10.5487 260.469 10.6785 260.408 10.8006C260.363 10.9075 260.347 11.022 260.363 11.1442C260.378 11.2969 260.454 11.442 260.592 11.5794C260.729 11.7168 260.928 11.8924 261.187 12.1062C261.722 12.5032 262.119 12.8162 262.378 13.0453C262.653 13.2743 262.844 13.4576 262.951 13.595C263.058 13.7324 263.126 13.8699 263.157 14.0073C263.416 14.4807 263.447 14.8929 263.249 15.2441C263.05 15.5801 262.745 15.8397 262.332 16.0229C262.18 16.0993 261.912 16.168 261.531 16.229C261.149 16.3054 260.744 16.3359 260.317 16.3207C259.904 16.3207 259.553 16.2596 259.263 16.1374ZM267.683 15.9771C267.317 15.9771 266.996 15.7862 266.721 15.4045C266.462 15.0075 266.301 14.5341 266.24 13.9844C266.255 13.8622 266.271 13.6866 266.286 13.4576C266.316 13.2285 266.347 12.9918 266.378 12.7475C266.439 12.4574 266.523 12.0833 266.629 11.6252C266.736 11.1671 266.851 10.709 266.973 10.2509C267.095 9.77754 267.202 9.37289 267.294 9.03695C267.385 8.68575 267.439 8.4796 267.454 8.41852C267.546 8.20475 267.752 8.1513 268.072 8.25819C268.393 8.36508 268.668 8.59413 268.897 8.94533C268.989 9.06749 269.042 9.21256 269.057 9.38052C269.088 9.54849 269.065 9.79281 268.989 10.1135C268.928 10.4341 268.805 10.9075 268.622 11.5336C268.454 12.1444 268.324 12.6406 268.233 13.0224C268.156 13.3889 268.126 13.7782 268.141 14.1905C268.08 14.8929 268.019 15.3739 267.958 15.6335C267.897 15.8778 267.805 15.9924 267.683 15.9771ZM269.79 6.47162C269.729 6.51743 269.668 6.54033 269.607 6.54033C269.561 6.52506 269.477 6.47925 269.355 6.4029C269.248 6.38763 269.111 6.31892 268.943 6.19676C268.79 6.05933 268.653 5.9219 268.531 5.78448C268.424 5.64705 268.37 5.56306 268.37 5.53252C268.355 5.37982 268.363 5.13551 268.393 4.79957C268.439 4.46363 268.523 4.1506 268.645 3.86048C268.783 3.55508 268.966 3.39475 269.195 3.37948C269.256 3.37948 269.386 3.41002 269.584 3.47109C269.798 3.53217 270.019 3.60852 270.248 3.70014C270.371 3.92919 270.485 4.22695 270.592 4.59343C270.699 4.9599 270.707 5.31875 270.615 5.66995C270.539 6.00589 270.264 6.27311 269.79 6.47162ZM277.859 15.9084C277.63 15.9084 277.409 15.8397 277.195 15.7022C276.981 15.5495 276.806 15.3434 276.668 15.0838C276.531 14.809 276.462 14.4883 276.462 14.1218C276.462 13.8928 276.5 13.5721 276.577 13.1598C276.668 12.7323 276.798 12.1978 276.966 11.5565C276.997 11.3427 277.02 11.2053 277.035 11.1442C277.065 11.0831 277.081 11.022 277.081 10.961C277.081 10.9304 277.073 10.9075 277.058 10.8922C277.058 10.8617 277.042 10.8464 277.012 10.8464C276.89 10.8464 276.722 10.9304 276.508 11.0984C276.31 11.2511 276.08 11.4343 275.821 11.6481C275.775 11.6786 275.722 11.7168 275.661 11.7626C275.615 11.8084 275.561 11.8542 275.5 11.9C275.454 11.9459 275.401 11.9917 275.34 12.0375C275.187 12.1291 274.951 12.3047 274.63 12.5643C274.324 12.8239 274.004 13.0987 273.668 13.3889C273.347 13.679 273.065 13.9233 272.82 14.1218C272.698 14.2134 272.591 14.2898 272.5 14.3509C272.423 14.4119 272.37 14.4425 272.339 14.4425C272.309 14.4425 272.187 14.4043 271.973 14.328C271.774 14.2363 271.576 14.1142 271.377 13.9615C271.194 13.7935 271.103 13.6026 271.103 13.3889C271.103 13.2514 271.156 12.9766 271.263 12.5643C271.385 12.152 271.553 11.6634 271.767 11.0984C271.981 10.5334 272.225 9.96078 272.5 9.38052C272.561 9.24309 272.607 9.05986 272.637 8.83081C272.668 8.60176 272.698 8.38035 272.729 8.16657C272.775 7.93752 272.851 7.76955 272.958 7.66267C273.004 7.58632 273.057 7.53287 273.118 7.50233C273.194 7.45652 273.271 7.43362 273.347 7.43362C273.5 7.43362 273.645 7.47179 273.782 7.54814C273.92 7.60922 274.05 7.71611 274.172 7.86881C274.401 8.11313 274.523 8.40325 274.538 8.73919C274.569 9.05986 274.546 9.37289 274.47 9.67829C274.393 9.98368 274.309 10.2356 274.218 10.4341C274.126 10.6174 274.08 10.6937 274.08 10.6632C274.141 10.6327 274.225 10.5563 274.332 10.4341C274.454 10.312 274.66 10.1669 274.951 9.99895C275.348 9.69356 275.653 9.47978 275.867 9.35762C276.08 9.22019 276.241 9.12094 276.348 9.05986C276.47 8.99878 276.577 8.93006 276.668 8.85371C276.745 8.79263 276.798 8.75446 276.829 8.73919C276.875 8.72392 276.897 8.71629 276.897 8.71629C276.943 8.71629 277.02 8.68575 277.126 8.62467C277.249 8.56359 277.363 8.53305 277.47 8.53305C277.623 8.53305 277.783 8.57122 277.951 8.64757C278.119 8.70865 278.264 8.80027 278.386 8.92243C278.508 9.02932 278.569 9.14384 278.569 9.266C278.569 9.31181 278.585 9.34998 278.615 9.38052C278.646 9.41106 278.676 9.44924 278.707 9.49505C278.783 9.58667 278.867 9.71646 278.959 9.88443C279.066 10.0371 279.119 10.2891 279.119 10.6403C279.119 10.8846 279.066 11.2434 278.959 11.7168C278.852 12.1902 278.737 12.6559 278.615 13.114C278.493 13.5874 278.432 13.9691 278.432 14.2592C278.447 14.5341 278.478 14.7479 278.524 14.9006C278.569 15.038 278.592 15.1525 278.592 15.2441C278.592 15.3663 278.531 15.5114 278.409 15.6793C278.287 15.832 278.104 15.9084 277.859 15.9084ZM282.6 15.7939C282.005 15.5495 281.593 15.1525 281.364 14.6028C281.134 14.0531 281.073 13.3201 281.18 12.404C281.211 11.9306 281.196 11.6176 281.134 11.4649C281.073 11.2969 280.959 11.1366 280.791 10.9839C280.745 10.9228 280.638 10.8235 280.47 10.6861C280.302 10.5334 280.226 10.4189 280.241 10.3425C280.226 10.2356 280.249 10.1058 280.31 9.95314C280.371 9.78517 280.424 9.69356 280.47 9.67829C280.577 9.63248 280.684 9.57903 280.791 9.51795C280.913 9.45687 281.005 9.4416 281.066 9.47214C281.127 9.47214 281.218 9.51032 281.341 9.58667C281.478 9.66302 281.547 9.73173 281.547 9.79281C281.608 9.8997 281.699 9.85389 281.822 9.65538C281.959 9.45687 282.104 9.20492 282.257 8.89952C282.409 8.65521 282.6 8.42616 282.829 8.21238C283.058 7.9986 283.288 7.80773 283.517 7.63976C283.761 7.45652 283.967 7.31909 284.135 7.22748C284.211 7.19694 284.356 7.15113 284.57 7.09005C284.799 7.02897 285.036 6.98316 285.28 6.95262C285.525 6.90681 285.708 6.89154 285.83 6.90681C286.105 6.92208 286.395 7.0366 286.7 7.25038C287.006 7.46416 287.242 7.66267 287.41 7.8459C287.609 7.98333 287.739 8.19711 287.8 8.48724C287.876 8.7621 287.907 9.05222 287.891 9.35762C287.876 9.66302 287.815 9.9226 287.708 10.1364C287.662 10.2891 287.502 10.5029 287.227 10.7777C286.952 11.0526 286.647 11.3198 286.311 11.5794C285.99 11.8237 285.715 11.9917 285.486 12.0833C285.288 12.1291 285.051 12.1673 284.776 12.1978C284.501 12.2131 284.242 12.2131 283.998 12.1978C283.769 12.1673 283.608 12.1291 283.517 12.0833C283.41 12.0222 283.318 12.0451 283.242 12.152C283.181 12.2436 283.127 12.5032 283.081 12.9308C283.066 13.0987 283.066 13.2438 283.081 13.366C283.112 13.4881 283.142 13.5797 283.173 13.6408C283.28 13.824 283.387 13.9615 283.494 14.0531C283.601 14.1294 283.799 14.1523 284.089 14.1218C284.379 14.0913 284.669 13.9157 284.96 13.595C285.265 13.2591 285.54 12.9918 285.784 12.7933C285.845 12.6864 285.975 12.6177 286.174 12.5872C286.387 12.5414 286.639 12.5567 286.929 12.633C287.097 12.7399 287.174 12.9079 287.158 13.1369C287.158 13.366 287.036 13.7019 286.792 14.1447C286.746 14.2516 286.616 14.4119 286.403 14.6257C286.204 14.8242 285.983 15.0304 285.738 15.2441C285.509 15.4427 285.318 15.5877 285.166 15.6793C284.708 15.9237 284.257 16.0382 283.814 16.0229C283.371 16.0076 282.967 15.9313 282.6 15.7939ZM284.295 10.6403C284.524 10.5792 284.715 10.5181 284.868 10.457C285.036 10.396 285.196 10.2967 285.349 10.1593C285.502 10.0219 285.677 9.81571 285.876 9.54086C285.937 9.37289 285.967 9.22782 285.967 9.10567C285.983 8.98351 285.975 8.90716 285.944 8.87662C285.822 8.75446 285.685 8.71629 285.532 8.76209C285.395 8.79263 285.242 8.86898 285.074 8.99114C284.967 9.03695 284.814 9.13621 284.616 9.2889C284.433 9.42633 284.25 9.58667 284.066 9.7699C283.898 9.93787 283.761 10.0982 283.654 10.2509C283.562 10.3883 283.547 10.4723 283.608 10.5029C283.578 10.5639 283.662 10.6021 283.86 10.6174C284.074 10.6327 284.219 10.6403 284.295 10.6403ZM290.983 16.1603C290.174 16.1603 289.578 15.9007 289.197 15.3816C289.09 15.1373 289.036 14.8929 289.036 14.6486C289.051 14.389 289.113 14.2058 289.219 14.0989C289.326 13.9767 289.456 13.9997 289.609 14.1676C289.807 14.2898 290.09 14.3509 290.456 14.3509C290.64 14.3509 290.8 14.3509 290.937 14.3509C291.09 14.3356 291.266 14.3203 291.464 14.305C291.815 14.2745 292.037 14.1676 292.128 13.9844C292.235 13.8011 292.212 13.6484 292.06 13.5263H292.083C291.67 13.4194 291.266 13.2667 290.869 13.0682C290.472 12.8697 290.136 12.6483 289.861 12.404C289.586 12.1444 289.426 11.9 289.38 11.671C289.258 11.1671 289.288 10.6479 289.471 10.1135C289.655 9.57903 289.922 9.1133 290.273 8.71629C290.411 8.62467 290.601 8.49487 290.846 8.3269C291.09 8.14367 291.266 8.04441 291.373 8.02914V8.05205C291.663 7.74665 291.991 7.50233 292.357 7.31909C292.724 7.12059 293.151 6.93735 293.64 6.76938L294.007 6.72357C294.19 6.69303 294.35 6.67776 294.488 6.67776C294.472 6.67776 294.51 6.69303 294.602 6.72357C294.694 6.75411 294.77 6.77702 294.831 6.79229C294.923 6.83809 295.014 6.861 295.106 6.861C295.32 6.89154 295.526 7.00606 295.724 7.20457C295.938 7.38781 296.106 7.60922 296.228 7.86881C296.366 8.11313 296.419 8.34217 296.389 8.55595C296.343 8.90716 296.213 9.25836 295.999 9.60957C295.785 9.94551 295.556 10.1364 295.312 10.1822C295.343 10.1669 295.312 10.1364 295.221 10.0906C295.129 10.0448 295.045 9.99895 294.969 9.95314L294.877 9.99895C294.877 9.99895 294.869 9.97605 294.854 9.93024C294.854 9.88443 294.839 9.83098 294.808 9.7699C294.747 9.66302 294.701 9.54849 294.671 9.42633C294.656 9.30417 294.656 9.16675 294.671 9.01405C294.701 8.84608 294.709 8.74682 294.694 8.71629C294.678 8.68575 294.587 8.66284 294.419 8.64757C294.22 8.60176 293.968 8.62467 293.663 8.71629C293.358 8.79263 293.075 8.93006 292.816 9.12857C292.51 9.32708 292.281 9.48741 292.128 9.60957C291.991 9.73173 291.884 9.85389 291.808 9.97605C291.731 10.0829 291.647 10.2433 291.556 10.457C291.495 10.5639 291.441 10.6632 291.395 10.7548C291.35 10.8312 291.327 10.9075 291.327 10.9839C291.327 11.1366 291.456 11.2969 291.716 11.4649C291.976 11.6176 292.365 11.8008 292.884 12.0146C293.297 12.1825 293.564 12.4116 293.686 12.7017C293.823 12.9918 293.945 13.2667 294.052 13.5263C294.083 13.5874 294.113 13.7019 294.144 13.8699C294.19 14.0226 294.197 14.1142 294.167 14.1447C294.197 14.1753 294.213 14.2058 294.213 14.2363V14.2134C294.335 14.4425 294.312 14.6868 294.144 14.9464C293.991 15.1907 293.747 15.4197 293.411 15.6335C293.075 15.832 292.693 15.9771 292.266 16.0687H292.289C292.06 16.0993 291.831 16.1222 291.602 16.1374C291.388 16.1527 291.182 16.1603 290.983 16.1603ZM297.937 16.1374C297.418 15.9237 297.036 15.7022 296.792 15.4732C296.563 15.2289 296.471 15.0151 296.517 14.8319C296.548 14.7402 296.601 14.6563 296.677 14.5799C296.754 14.5036 296.922 14.473 297.181 14.4883C297.456 14.4883 297.876 14.557 298.441 14.6944C298.609 14.6944 298.777 14.6868 298.945 14.6715C299.113 14.6563 299.266 14.6333 299.403 14.6028C299.556 14.5723 299.678 14.5341 299.77 14.4883C299.846 14.4577 299.869 14.4196 299.838 14.3738C299.808 14.3127 299.754 14.2516 299.678 14.1905C299.617 14.1142 299.548 14.0684 299.472 14.0531C299.395 14.0226 299.327 14.0073 299.266 14.0073C299.235 13.9309 299.166 13.8546 299.06 13.7782C298.968 13.7019 298.853 13.6179 298.716 13.5263C298.38 13.2514 298.075 13.0071 297.8 12.7933C297.525 12.5796 297.418 12.4192 297.479 12.3123C297.479 12.2513 297.479 12.2207 297.479 12.2207C297.479 12.2054 297.479 12.1978 297.479 12.1978C297.372 12.1978 297.273 12.0527 297.181 11.7626C297.09 11.4572 297.044 11.1824 297.044 10.938C297.044 10.6327 297.105 10.3273 297.227 10.0219C297.365 9.71646 297.533 9.42633 297.731 9.15148C297.945 8.87662 298.159 8.6323 298.372 8.41852C298.663 8.14367 298.968 7.87644 299.289 7.61686C299.625 7.342 299.983 7.09768 300.365 6.8839C300.762 6.67013 301.197 6.50216 301.671 6.38C301.884 6.33419 302.129 6.31129 302.404 6.31129C302.679 6.31129 302.877 6.34946 302.999 6.42581C303.121 6.34946 303.274 6.37236 303.457 6.49452C303.641 6.60141 303.824 6.75411 304.007 6.95262C304.19 7.15113 304.328 7.34963 304.419 7.54814C304.419 7.73138 304.412 7.96043 304.396 8.23529C304.396 8.49487 304.381 8.72392 304.351 8.92243C304.32 9.12094 304.251 9.22019 304.144 9.22019C304.144 9.22019 304.122 9.22783 304.076 9.24309C304.045 9.24309 304.03 9.28127 304.03 9.35762C304.03 9.51032 303.915 9.68592 303.686 9.88443C303.396 10.0829 303.121 10.2433 302.862 10.3654C302.602 10.4876 302.404 10.4952 302.266 10.3883C302.175 10.3273 302.091 10.2662 302.014 10.2051C301.938 10.144 301.869 10.0677 301.808 9.97605C301.808 9.97605 301.785 9.94551 301.739 9.88443C301.709 9.80808 301.694 9.73936 301.694 9.67829C301.694 9.61721 301.717 9.56376 301.762 9.51795C301.808 9.45687 301.831 9.42633 301.831 9.42633C302.045 9.22783 302.205 9.04459 302.312 8.87662C302.434 8.70865 302.518 8.56359 302.564 8.44143C302.61 8.304 302.633 8.19711 302.633 8.12076C302.633 8.02914 302.61 7.9757 302.564 7.96043C302.533 7.92989 302.457 7.91462 302.335 7.91462C302.259 7.91462 302.091 7.9757 301.831 8.09786C301.587 8.22002 301.327 8.37271 301.052 8.55595C300.777 8.72392 300.564 8.87662 300.411 9.01405C300.35 9.12094 300.304 9.18965 300.274 9.22019C300.258 9.25073 300.22 9.266 300.159 9.266C300.159 9.20492 300.121 9.21256 300.044 9.2889C299.968 9.36525 299.876 9.47214 299.77 9.60957C299.663 9.747 299.556 9.89206 299.449 10.0448C299.342 10.1975 299.258 10.3196 299.197 10.4112C299.182 10.5487 299.144 10.6785 299.082 10.8006C299.037 10.9075 299.021 11.022 299.037 11.1442C299.052 11.2969 299.128 11.442 299.266 11.5794C299.403 11.7168 299.602 11.8924 299.861 12.1062C300.396 12.5032 300.793 12.8162 301.052 13.0453C301.327 13.2743 301.518 13.4576 301.625 13.595C301.732 13.7324 301.8 13.8699 301.831 14.0073C302.091 14.4807 302.121 14.8929 301.923 15.2441C301.724 15.5801 301.419 15.8397 301.006 16.0229C300.854 16.0993 300.587 16.168 300.205 16.229C299.823 16.3054 299.418 16.3359 298.991 16.3207C298.579 16.3207 298.227 16.2596 297.937 16.1374Z" fill="#ADADAD"/>
</svg>
