<svg width="26" height="26" viewBox="0 0 26 26" fill="none" xmlns="http://www.w3.org/2000/svg">
<circle cx="13" cy="13" r="13" fill="#7A7A7A"/>
<path fill-rule="evenodd" clip-rule="evenodd" d="M8.33333 17.9402H17.6667L17.6667 14.1795H19L19 17.9402C19 18.6923 18.4 19.3077 17.6667 19.3077H8.33333C7.59333 19.3077 7 18.6923 7 17.9402L7 8.36752C7 7.61538 7.59333 7 8.33333 7L12 7L12 8.36752H8.33333L8.33333 17.9402ZM14.3319 8.36752L14.3319 7L18.9985 7L18.9985 11.7863H17.6652L17.6652 9.33162L11.1119 16.053L10.1719 15.0889L16.7252 8.36752L14.3319 8.36752Z" fill="white"/>
</svg>
