<svg width="126" height="51" viewBox="0 0 126 51" fill="none" xmlns="http://www.w3.org/2000/svg">
<path fill-rule="evenodd" clip-rule="evenodd" d="M15.9792 14.8884L15.9802 10.4785L7.03645 21.937L15.9777 21.9389L15.9792 14.8884ZM18.6934 21.9395L18.695 14.889L18.6965 8.05587C18.6969 6.26506 16.4323 5.4856 15.3304 6.89729L0.405841 26.0181C-0.55873 27.2539 0.321579 29.0582 1.88923 29.0586L10.8888 29.0606L10.8858 42.9442C10.8854 44.735 13.15 45.5145 14.2519 44.1028L29.1764 24.982C30.141 23.7462 29.2607 21.9418 27.6931 21.9415L18.6934 21.9395ZM13.6046 29.0612L13.6021 40.5215L22.5458 29.0631L13.6046 29.0612ZM24.6652 26.3478L25.9851 24.6569L4.91706 24.6523L3.59721 26.3432L24.6652 26.3478Z" fill="url(#paint0_linear_2816_7512)"/>
<path d="M47.2526 36.8045C46.9734 36.9907 46.5824 37.1489 46.0797 37.2793C45.5956 37.4282 45.1488 37.5027 44.7392 37.5027C43.2312 37.5027 42.0397 37.1117 41.1646 36.3298C40.2896 35.5478 39.8521 34.4215 39.8521 32.9507L39.8521 25.969L38.0089 25.969L38.0089 23.5394L39.8521 23.5394L39.8521 20.272L43.0078 19.6297L43.0078 23.5394L45.4653 23.5394L46.4428 25.969L43.0078 25.969L43.0078 32.42C43.0078 33.1089 43.166 33.6861 43.4825 34.1515C43.799 34.5983 44.2924 34.8217 44.9626 34.8217C45.2047 34.8217 45.4374 34.7938 45.6608 34.738C45.9028 34.6635 46.1356 34.5797 46.359 34.4866L47.2526 36.8045ZM52.8504 24.6565C53.4275 24.1352 54.1164 23.7256 54.9169 23.4277C55.7361 23.1298 56.4808 22.9809 57.1511 22.9809C58.9011 22.9809 60.1485 23.4929 60.8932 24.5168C61.6565 25.5222 62.0382 26.7789 62.0382 28.2869L62.0382 37L58.8825 37L58.8825 28.4824C58.8825 27.6074 58.6684 26.9185 58.2402 26.4158C57.8306 25.9132 57.2069 25.6618 56.3691 25.6618C55.8292 25.6618 55.2334 25.8201 54.5818 26.1366C53.9302 26.4345 53.353 26.8161 52.8504 27.2816L52.8504 37L49.7226 37L49.7226 17.5911L52.8504 17.2839L52.8504 24.6565ZM65.6728 37L65.6728 23.4556L67.3763 23.4556C67.5439 23.7908 67.7114 24.1259 67.879 24.461C68.0652 24.7775 68.242 25.094 68.4096 25.4105C68.9495 24.945 69.6197 24.5075 70.4203 24.0979C71.2209 23.6697 71.9842 23.4556 72.7103 23.4556L73.3526 25.9969C72.6823 25.9969 71.9376 26.1831 71.1185 26.5555C70.3179 26.9278 69.5546 27.4491 68.8285 28.1194L68.8285 37L65.6728 37ZM77.0286 21.2774C76.5073 21.2774 76.0698 21.1005 75.7161 20.7468C75.3624 20.393 75.1855 19.9555 75.1855 19.4342C75.1669 18.9129 75.3344 18.4754 75.6882 18.1217C76.0605 17.7493 76.5073 17.5631 77.0286 17.5631C77.5499 17.5631 77.9874 17.7493 78.3412 18.1217C78.7135 18.4754 78.8997 18.9129 78.8997 19.4342C78.8997 19.9555 78.7135 20.393 78.3412 20.7468C77.9874 21.1005 77.5499 21.2774 77.0286 21.2774ZM75.4368 37L75.4368 23.4556L78.6204 23.4556L78.6204 37L75.4368 37ZM90.2658 26.723C89.6887 26.4438 89.1115 26.2204 88.5344 26.0528C87.9758 25.8666 87.3521 25.7735 86.6633 25.7735C86.0861 25.7735 85.63 25.8946 85.2949 26.1366C84.9598 26.36 84.7922 26.6765 84.7922 27.0861C84.7922 27.4026 84.9877 27.6912 85.3787 27.9518C85.7883 28.1938 86.3654 28.4545 87.1101 28.7337C88.2272 29.1247 89.2698 29.6833 90.2379 30.4093C91.206 31.1168 91.6901 32.0477 91.6901 33.202C91.6901 34.5052 91.2153 35.5199 90.2658 36.246C89.3349 36.9721 87.9572 37.3351 86.1327 37.3351C85.5555 37.3351 84.8015 37.2327 83.8706 37.0279C82.9397 36.8231 82.1671 36.488 81.5527 36.0226L82.5022 33.7326C83.1166 34.0305 83.731 34.2632 84.3454 34.4308C84.9598 34.5797 85.5462 34.6542 86.1048 34.6542C86.8867 34.6542 87.4825 34.5425 87.8921 34.3191C88.3203 34.077 88.5344 33.7512 88.5344 33.3416C88.5344 32.8948 88.311 32.5038 87.8641 32.1687C87.4359 31.815 86.8122 31.5078 85.9931 31.2471C84.9318 30.8934 83.9172 30.4 82.9491 29.767C81.9996 29.1154 81.5248 28.2404 81.5248 27.1419C81.5248 25.8759 81.9902 24.8892 82.9211 24.1817C83.852 23.4556 85.118 23.0926 86.7191 23.0926C87.2963 23.0926 88.0317 23.2136 88.9253 23.4556C89.819 23.679 90.5823 24.0049 91.2153 24.4331L90.2658 26.723ZM102.233 36.8045C101.954 36.9907 101.563 37.1489 101.06 37.2793C100.576 37.4282 100.129 37.5027 99.7196 37.5027C98.2116 37.5027 97.02 37.1117 96.145 36.3298C95.27 35.5478 94.8325 34.4215 94.8325 32.9507L94.8325 25.969L92.9893 25.969L92.9893 23.5394L94.8325 23.5394L94.8325 20.272L97.9882 19.6297L97.9882 23.5394L100.446 23.5394L101.423 25.969L97.9882 25.969L97.9882 32.4201C97.9882 33.1089 98.1464 33.6861 98.4629 34.1515C98.7794 34.5983 99.2728 34.8217 99.943 34.8217C100.185 34.8217 100.418 34.7938 100.641 34.738C100.883 34.6635 101.116 34.5797 101.339 34.4866L102.233 36.8045ZM104.675 37L104.675 17.5911L107.831 17.2839L107.831 37L104.675 37ZM123.772 31.0796L114.389 31.0796C114.519 32.1408 114.919 33.0065 115.59 33.6767C116.26 34.347 117.209 34.6821 118.438 34.6821C119.146 34.6821 119.76 34.5983 120.281 34.4308C120.803 34.2632 121.361 34.0398 121.957 33.7605C122.125 34.1329 122.283 34.5145 122.432 34.9055C122.599 35.2965 122.758 35.6781 122.906 36.0505C122.292 36.4973 121.529 36.8231 120.616 37.0279C119.704 37.2327 118.96 37.3351 118.382 37.3351C116.074 37.3351 114.277 36.6928 112.993 35.4082C111.708 34.105 111.066 32.3828 111.066 30.2418C111.066 28.1007 111.661 26.3786 112.853 25.0754C114.044 23.7535 115.664 23.0926 117.712 23.0926C120.039 23.0926 121.631 23.9025 122.488 25.5222C123.344 27.1233 123.772 28.9758 123.772 31.0796ZM120.756 28.9572C120.57 27.9518 120.216 27.1792 119.695 26.6393C119.192 26.0807 118.503 25.8015 117.628 25.8015C116.735 25.8015 116.009 26.0807 115.45 26.6393C114.91 27.1978 114.575 27.9704 114.445 28.9572L120.756 28.9572Z" fill="white"/>
<defs>
<linearGradient id="paint0_linear_2816_7512" x1="6.98159" y1="3.39148" x2="23.2736" y2="44.6989" gradientUnits="userSpaceOnUse">
<stop stop-color="#00F0FF"/>
<stop offset="1" stop-color="#592BD9"/>
</linearGradient>
</defs>
</svg>
