<svg width="312" height="51" viewBox="0 0 312 51" fill="none" xmlns="http://www.w3.org/2000/svg">
<path d="M0.63117 7.75977V1.45454H38.2018V7.75977H23.055V50H15.7542V7.75977H0.63117ZM46.504 50V1.45454H53.8285V22.551H78.0301V1.45454H85.3783V50H78.0301V28.8325H53.8285V50H46.504ZM96.045 50V1.45454H113.349C117.11 1.45454 120.231 2.10245 122.712 3.39826C125.209 4.69407 127.073 6.48766 128.306 8.77903C129.539 11.0546 130.155 13.6857 130.155 16.6724C130.155 19.6433 129.531 22.2586 128.282 24.5184C127.05 26.7623 125.185 28.5085 122.688 29.7569C120.207 31.0053 117.086 31.6295 113.325 31.6295H100.217V25.3243H112.661C115.032 25.3243 116.96 24.9846 118.445 24.305C119.946 23.6255 121.045 22.6379 121.74 21.3421C122.435 20.0463 122.783 18.4897 122.783 16.6724C122.783 14.8393 122.427 13.2512 121.716 11.9079C121.021 10.5647 119.923 9.53755 118.421 8.82644C116.936 8.09952 114.984 7.73606 112.567 7.73606H103.37V50H96.045ZM120.01 28.0977L132.004 50H123.66L111.903 28.0977H120.01ZM146.392 1.45454V50H139.067V1.45454H146.392ZM183.536 14.2072C183.283 11.9632 182.24 10.225 180.407 8.99236C178.574 7.74396 176.267 7.11976 173.485 7.11976C171.494 7.11976 169.772 7.43581 168.318 8.06791C166.864 8.68421 165.734 9.53755 164.928 10.6279C164.138 11.7025 163.743 12.9272 163.743 14.302C163.743 15.4556 164.012 16.4512 164.549 17.2887C165.102 18.1262 165.821 18.8295 166.706 19.3983C167.607 19.9514 168.571 20.4176 169.598 20.7969C170.625 21.1603 171.613 21.4606 172.561 21.6976L177.302 22.9302C178.85 23.3095 180.439 23.8231 182.066 24.471C183.694 25.1189 185.203 25.9722 186.594 27.031C187.984 28.0898 189.106 29.4014 189.96 30.9658C190.829 32.5303 191.263 34.4029 191.263 36.5836C191.263 39.3333 190.552 41.7748 189.13 43.9081C187.724 46.0415 185.677 47.7244 182.991 48.957C180.32 50.1896 177.088 50.8059 173.296 50.8059C169.661 50.8059 166.517 50.2291 163.862 49.0756C161.207 47.922 159.129 46.2864 157.628 44.1689C156.126 42.0355 155.297 39.5071 155.139 36.5836H162.487C162.629 38.3377 163.198 39.7994 164.194 40.9688C165.205 42.1224 166.493 42.9837 168.057 43.5526C169.638 44.1056 171.368 44.3822 173.248 44.3822C175.319 44.3822 177.16 44.0582 178.771 43.4103C180.399 42.7466 181.679 41.8301 182.611 40.6607C183.544 39.4755 184.01 38.0928 184.01 36.5125C184.01 35.0745 183.599 33.8972 182.777 32.9806C181.971 32.0641 180.873 31.3056 179.483 30.7051C178.108 30.1046 176.551 29.5752 174.813 29.1169L169.077 27.5525C165.189 26.4937 162.108 24.9371 159.832 22.8828C157.572 20.8285 156.442 18.1104 156.442 14.7287C156.442 11.9316 157.201 9.49014 158.718 7.40421C160.235 5.31827 162.289 3.69851 164.881 2.54492C167.473 1.37553 170.396 0.790836 173.651 0.790836C176.938 0.790836 179.838 1.36763 182.351 2.52122C184.879 3.6748 186.87 5.26296 188.324 7.28569C189.778 9.29261 190.536 11.5998 190.6 14.2072H183.536ZM197.622 7.75977V1.45454H235.192V7.75977H220.046V50H212.745V7.75977H197.622ZM243.495 50V1.45454H250.819V43.6948H272.816V50H243.495ZM281.172 50V1.45454H311.608V7.75977H288.496V22.551H310.02V28.8325H288.496V43.6948H311.892V50H281.172Z" fill="black"/>
</svg>
